<?xml version="1.0" encoding="UTF-8"?>
<!DOCTYPE svg PUBLIC "-//W3C//DTD SVG 1.1//EN" "http://www.w3.org/Graphics/SVG/1.1/DTD/svg11.dtd">
<!-- Creator: CorelDRAW 2019 (64-Bit) -->
<svg xmlns="http://www.w3.org/2000/svg" xml:space="preserve" width="271.034mm" height="232.886mm" version="1.1" style="shape-rendering:geometricPrecision; text-rendering:geometricPrecision; image-rendering:optimizeQuality; fill-rule:evenodd; clip-rule:evenodd"
viewBox="0 0 324.5246 278.8474"
 xmlns:xlink="http://www.w3.org/1999/xlink">
 <defs>
  <style type="text/css">
   <![CDATA[
    .fil0 {fill:black}
    .fil4 {fill:#F2FDBA}
    .fil3 {fill:#F8FDDC}
    .fil2 {fill:#FE0000}
    .fil1 {fill:white}
   ]]>
  </style>
 </defs>
 <g id="Layer_x0020_1">
  <metadata id="CorelCorpID_0Corel-Layer"/>
  <path class="fil0" d="M147.0864 0.4605l-2.0353 12.4663c-4.9779,0.6663 -8.3452,1.2231 -13.0295,2.5595 -1.2978,0.3702 -2.943,1.0342 -4.237,1.2298 -0.3185,-0.8554 -2.8508,-4.2281 -3.5332,-5.1969 -0.731,-1.0379 -3.1832,-4.2656 -3.531,-5.1966 -3.134,0.5843 -10.0568,4.6631 -13.1134,6.0821l3.668 12.3886c-2.6936,1.1123 -9.3996,6.7944 -12.0702,9.1364 -0.5984,0.5248 -0.9945,1.0858 -1.5655,1.5773l-11.3798 -6.2513 -4.6687 5.4032c-0.7972,0.9591 -3.8227,4.7851 -4.2128,5.7915l8.5338 9.207 -7.6099 15.7922 -12.8244 -0.7534c-1.0998,3.0076 -2.997,10.6167 -3.1586,14l11.8923 4.6766c-0.1565,2.9498 -0.4336,5.6604 -0.4333,8.7193 0.0004,3.0291 0.3295,5.7871 0.4486,8.737l-11.8979 4.6821c0.4119,5.6252 2.4644,10.2431 3.0645,13.9127l12.9051 -0.7868c0.5189,0.8653 1.2388,3.0988 1.6786,4.1287l3.7771 7.7585c0.6084,1.0983 1.7808,2.7282 2.1503,3.7512 -0.5722,0.9303 -8.0232,8.6067 -8.5302,9.4582 1.2275,2.394 7.1474,9.2087 8.9118,11.0891l11.2628 -6.2278c0.585,0.6267 1.0073,1.0237 1.5998,1.5276 0.5648,0.4804 0.9894,0.9671 1.5678,1.4553l6.7734 5.3352c1.0779,0.7721 2.7148,1.6427 3.6919,2.5213l-3.6161 12.3c1.8682,0.6908 8.0896,4.6795 12.915,6.0759 1.0436,-0.8318 6.2624,-9.261 7.5656,-10.377 8.299,2.2083 7.5475,2.4622 16.9638,3.7995l2.0829 12.4757c1.8135,0.764 11.9303,0.2838 14.4521,0.1421l2.0557 -12.632c3.1561,-0.3972 5.9413,-0.8403 8.9518,-1.5209l8.2096 -2.26c1.2333,1.7387 2.374,3.3926 3.5903,5.1079l3.6141 5.279c3.8036,-0.7673 11.2058,-5.3713 13.0847,-6.0841l-3.6413 -12.2873c1.0424,-0.8926 2.5796,-1.6849 3.6517,-2.4739 4.6569,-3.427 5.7646,-4.4849 10.0178,-8.3106l11.284 6.193 4.682 -5.3743c0.9018,-1.0848 3.6791,-4.5152 4.2345,-5.7535 -0.5941,-0.9295 -3.2532,-3.5401 -4.2139,-4.636l-4.3193 -4.8221c0.328,-0.8966 1.5155,-2.6757 2.0854,-3.6452 1.9422,-3.3041 5.3833,-11.7087 5.5397,-11.9433l12.8834 0.7606c0.3178,-1.9201 1.2544,-4.5953 1.7408,-6.6622 0.5326,-2.262 1.1531,-4.9953 1.3529,-7.332l-11.898 -4.6813c0.0921,-2.911 0.4187,-5.6364 0.4199,-8.68 0.0011,-3.0461 -0.2786,-5.782 -0.4546,-8.7856l11.8918 -4.678c-0.1554,-3.5442 -2.0078,-10.6608 -3.1263,-13.9128l-12.8072 0.7881 -3.5031 -8.1201c-1.1806,-2.4197 -3.6687,-6.4595 -4.1303,-7.4751 0.2704,-0.4518 0.043,-0.1151 0.4454,-0.564l3.7779 -4.1712c0.9665,-0.9323 1.3645,-1.5796 2.1818,-2.3557 0.8929,-0.848 1.3782,-1.5151 2.1306,-2.3673 -0.5388,-1.2966 -5.9668,-8.1249 -7.6164,-9.7423 -0.4572,-0.4483 -0.8574,-0.8857 -1.2231,-1.3941l-11.3253 6.2206c-0.9905,-1.0783 -2.0046,-1.8776 -3.1432,-2.9435 -2.0948,-1.9609 -8.7694,-7.04 -10.5491,-7.7713l3.6682 -12.3969c-2.9159,-1.3415 -10.1757,-5.5804 -13.1526,-6.1039 -0.6638,1.663 -6.4569,8.7949 -7.0663,10.3771l-8.2901 -2.2527c-2.9591,-0.6783 -5.7818,-1.1062 -8.8856,-1.5252l-2.157 -12.6212c-2.4996,-0.1393 -12.6901,-0.6749 -14.4498,0.1636z"/>
  <path class="fil1" d="M152.1979 22.7385c-19.0986,0.8166 -36.2745,8.4137 -48.5204,21.3357 -12.4871,13.1765 -20.0797,30.5567 -19.4348,50.2952 1.2262,37.5299 33.0815,68.4031 72.2751,67.0399 55.9543,-1.9459 87.6818,-64.3899 54.4409,-110.2443 -1.8954,-2.6147 -3.7847,-4.7734 -5.9816,-7.0737 -0.7688,-0.805 -1.4556,-1.5058 -2.2976,-2.2393 -0.4763,-0.4151 -0.5368,-0.5055 -1.0516,-1.0255 -0.4271,-0.4314 -0.7962,-0.6471 -1.2266,-1.0506 -4.7138,-4.4202 -12.8284,-9.096 -18.8103,-11.6371 -8.3526,-3.5481 -19.1177,-5.8396 -29.3931,-5.4002z"/>
  <path class="fil2" d="M158.7726 119.8459c-0.5984,-0.5377 -0.9978,-2.1411 -1.333,-3.0588 -0.4051,-1.1083 -1.0568,-2.2828 -1.1067,-3.4072 -0.6016,-0.5331 -2.1233,-5.1686 -2.4976,-6.2072 -1.1604,-3.2199 -6.8252,-17.7035 -7.2241,-19.4306l-3.4571 -9.1631 -3.3175 -8.6792c-0.7413,-1.8791 -2.535,-7.4808 -3.4001,-8.7086l-1.7365 -0.0687c-0.7557,0.9403 -4.6178,12.2229 -5.4385,14.4013 -3.6492,9.6872 -7.0355,19.5187 -10.6581,29.0743 -1.8196,4.7997 -3.6649,9.7108 -5.3327,14.5238l-5.3767 0.4805c-0.2148,0.6781 -0.2312,1.2387 0.0263,1.8801 0.961,0.0679 13.4427,0.2852 13.848,-0.113 0.1905,-0.1871 0.2202,-0.7304 0.1848,-1.0825 -0.0625,-0.623 -0.1072,-0.6389 -0.7052,-0.7336 -1.4646,-0.2318 -3.7963,-0.287 -5.3269,-0.3554l5.8062 -16.6558 0.1185 1.1929 13.8211 0.0006c1.4118,-0.0219 3.9708,-0.1806 5.2411,0.1108l5.1017 13.9708c0.1254,0.1279 11.8266,31.1363 11.9141,32.3505 -31.0281,1.8843 -54.751,-18.7622 -60.9304,-43.6855 -4.6566,-18.7816 -0.1681,-37.1158 10.8508,-51.0535 4.7602,-6.0211 11.0627,-11.337 17.9128,-14.9978 0.7591,-0.4057 3.8779,-1.8207 4.3633,-2.2506l-0.782 -2.4217c-1.5279,0.1377 -8.0726,4.096 -9.4693,5.0264 -8.8483,5.8941 -15.7779,13.5967 -20.7232,23.1575 -9.2806,17.9423 -9.1001,40.3771 1.4159,58.4722 9.2748,15.9593 24.8639,26.8363 43.2895,29.8904 4.1964,0.6955 9.4221,1.069 13.8926,0.6708 2.6248,-0.2338 10.7656,-1.2423 12.4274,-2.2411 -1.674,-5.1479 -11.3772,-29.35 -11.3981,-30.8889z"/>
  <path class="fil2" d="M148.0142 76.2277c0.481,0.5181 3.2703,8.8204 3.2218,9.4271 0.1812,0.1837 0.1136,0.0959 0.2765,0.3697l1.0002 2.7852c0.3646,1.0647 0.7303,2.1537 1.1095,3.2545 1.9045,5.5303 5.1642,14.3886 6.5133,19.2738l2.2497 6.9772c0.7388,0.8185 0.6032,3.3943 1.686,4.0243 0.4026,0.2319 32.442,0.1977 33.1439,-0.045 0.2456,-1.2666 0.4482,-10.7501 0.4465,-13.1795 -0.0007,-0.9483 0.3369,-3.7471 -0.0512,-4.1302 -0.3992,-0.2376 -1.2539,-0.2492 -1.8278,-0.0299 -0.3057,0.6334 -0.7003,2.8476 -0.9004,3.6291 -0.8652,3.38 -2.1445,6.7566 -4.8301,8.8209 -4.2519,3.2683 -9.2328,2.5474 -15.288,2.5414 -0.4228,-0.202 -0.2583,-0.0746 -0.4901,-0.5076l-1.6961 -5.4543c-0.6491,-0.6377 -1.3402,-3.414 -1.6667,-4.4117 -1.6412,-5.0145 -10.0717,-28.7856 -10.5189,-30.9106l-15.3148 -44.5898c7.6559,-1.5535 17.783,-0.3464 24.6566,1.5655 35.7183,9.9354 54.2905,52.2812 33.9128,86.4753 -5.8318,9.7859 -15.0853,18.0986 -25.3106,22.7409 -1.5719,0.7137 -3.4595,1.3712 -4.9155,2.0409l0.8875 2.5425c2.7191,-0.6262 8.1247,-3.4807 10.3822,-4.8564 9.0754,-5.5303 17.2607,-13.2351 22.558,-23.2205 3.5539,-6.6992 6.5465,-14.6538 7.3042,-23.0959 2.2938,-25.5565 -10.0731,-47.9127 -30.9945,-59.8034 -13.9917,-7.9522 -33.2408,-10.5762 -49.8658,-4.5137l10.8278 31.6379c0.5511,1.5301 3.5089,9.812 3.4941,10.642z"/>
  <path class="fil0" d="M253.6108 247.4585c5.7635,0.2441 4.8798,-1.5724 4.8798,12.7999 0,14.4644 0.9221,12.7475 -4.8726,12.9962l0.0132 4.529 18.986 0.0075 0.031 -4.4273c-4.8876,-1.5129 -4.8787,3.9549 -4.8544,-11.4656 1.6192,-0.0547 4.8752,-0.1637 6.3528,0.1791 1.9768,0.4587 2.226,1.8676 2.291,4.0497 0.12,4.0362 -0.2067,8.621 2.2662,10.8655 3.0832,2.7983 14.9278,4.1482 13.4624,-8.9156l-3.2405 -0.0019c-0.1153,1.6382 0.1654,5.3404 -1.6318,5.4372 -2.0773,0.1118 -1.5423,-4.0325 -1.5405,-5.6872 0.0061,-5.8453 -0.8191,-6.8495 -5.7186,-8.4192 3.7942,-0.737 6.9666,-2.9188 7.4019,-6.7539 1.2825,-11.2972 -12.2203,-9.7335 -19.237,-9.7335 -4.8067,0 -9.72,-0.0996 -14.5134,0.0111l-0.0756 4.5291z"/>
  <path class="fil0" d="M138.7592 273.231l0.0166 4.5646 15.3011 -0.0071 0.0599 -4.5227c-5.5442,-0.3762 -4.9724,1.0015 -4.9724,-7.9 0,-4.3832 -0.0414,-8.7866 0.0073,-13.1672l13.6899 25.5922 10.1149 -0.0031c0.1885,-1.7639 0.0521,-22.4449 0.0461,-26.0417 -0.0075,-4.4296 0.1895,-4.2622 4.5052,-4.2622 0.2683,-0.8608 0.2162,-3.6207 0.0499,-4.5655l-15.0346 0.0017 -0.0429 4.5485c1.715,0.062 4.3345,-0.4603 4.7911,1.3419 0.3417,1.3489 0.1913,16.3272 0.1473,18.1495 -0.1644,-0.1715 -0.1185,-0.103 -0.3057,-0.3696l-12.4935 -23.6515 -15.8593 -0.0157c-0.0431,0.7846 -0.1972,4.262 0.1875,4.4919 0.8904,0.5322 3.4863,-0.5564 4.2631,0.8742 0.5956,1.097 0.3378,17.232 0.3383,19.725 0.0007,5.2477 0.4227,5.2169 -4.8098,5.2169z"/>
  <path class="fil0" d="M37.7128 247.483c4.3356,0.0065 4.6908,-0.3803 4.6836,4.0738l0 17.5923c0.0071,4.5358 -0.5167,4.0726 -4.8109,4.0833l0.0163 4.5582 15.2961 -0.0004 0.0659 -4.5458c-5.674,-0.144 -4.9727,0.5778 -4.9727,-8.0679 0,-4.0234 -0.2793,-9.1685 0.0466,-13.0557 0.5169,0.5359 6.0605,11.2983 6.8425,12.8372l6.8019 12.8308 10.1177 0.0013c0.4531,-4.0669 -0.4458,-27.5931 0.3379,-29.368 0.6773,-1.5341 2.7429,-0.5358 4.0181,-0.9593 0.5919,-0.1966 0.3532,-3.7645 0.3066,-4.4702l-15.099 -0.0748 -0.0558 4.5023c5.0618,0.6302 4.9725,-1.5928 4.9725,7.1634 0,4.0237 0.1547,8.3643 -0.0279,12.3493 -0.1888,-0.1625 -0.1324,-0.0829 -0.318,-0.3325 -0.1088,-0.1464 -0.1121,-0.1506 -0.2307,-0.3677 -0.0854,-0.156 -0.2392,-0.5216 -0.3642,-0.7682 -0.2677,-0.5284 -0.5062,-0.9337 -0.794,-1.4699l-4.7522 -9.0597c-0.9713,-1.9882 -2.0603,-3.9835 -3.1283,-5.9523 -0.9931,-1.8306 -2.1048,-4.3959 -3.2054,-6.0472l-15.7952 -0.0175c-0.1628,0.961 -0.2167,3.6867 0.0487,4.5653z"/>
  <path class="fil0" d="M216.6406 247.483c5.7462,0.0095 4.745,-0.9005 4.745,12.9645 0,13.8059 0.9683,12.7636 -4.8712,12.7856l0.0159 4.557 32.8479 0.0036 0.0394 -14.2973c-0.9503,-0.1527 -3.5201,-0.2109 -4.3796,0.055 -0.9931,10.1911 -4.5799,9.7616 -14.343,9.6721l0.0023 -11.2409c5.1315,-0.0287 5.1219,0.947 5.4662,5.7343l4.1518 0.1294 0.0006 -15.8277 -4.1569 -0.0611c-0.1485,4.6967 -0.8025,5.4809 -5.4561,5.4547l-0.0085 -9.9226c8.4714,-0.0845 12.6221,-0.9719 14.0191,6.5748 0.0892,0.4823 0.1303,1.0599 0.221,1.4821 0.161,0.7487 0.1303,0.668 0.9239,0.6955 0.9663,0.0336 2.5626,0.0265 3.5114,-0.0605l0.045 -13.2247 -32.8221 -0.0393c-0.1633,0.9618 -0.2162,3.6856 0.0478,4.5654z"/>
  <path class="fil0" d="M0.4804 273.3796l0.0053 4.3404 32.8682 0.0699 0.0311 -14.2526c-0.8871,-0.2384 -3.4527,-0.2089 -4.3786,-0.0257 -0.9252,10.3119 -4.6374,9.7174 -14.3435,9.7174l0.0028 -11.2499c5.1525,0.0068 5.1035,0.974 5.4695,5.7703l4.146 0.1155 0.0001 -15.9236 -4.154 0.0172c-0.1413,4.6837 -0.8098,5.4507 -5.4555,5.4577l-0.0093 -9.9317c12.3358,-0.0141 12.2973,-0.4082 14.3883,8.6875l4.2983 0.0398 0.034 -13.2329 -32.8752 -0.0593c-0.0569,0.8747 -0.3951,4.1607 0.1916,4.5016 0.6414,0.3725 3.4972,-0.4682 4.2952,0.8411 0.6577,1.0792 0.3581,17.2504 0.3587,19.7518 0.0002,1.2266 0.261,3.8272 -0.5226,4.645 -0.9124,0.9524 -3.1225,0.2827 -4.3501,0.7204z"/>
  <path class="fil0" d="M179.4091 273.381l0.0055 4.3387 32.8674 0.0702 0.032 -14.254c-0.8865,-0.2352 -3.4588,-0.2095 -4.3785,-0.0219 -0.9417,10.3158 -4.6247,9.715 -14.344,9.715l0.0028 -11.2494c5.1567,0.0008 5.105,0.9691 5.4698,5.7684l4.1464 0.1172 -0.0004 -15.9241 -4.1545 0.0181c-0.139,4.6815 -0.812,5.4525 -5.4555,5.4568l-0.0091 -9.9324c12.3037,0.0048 12.2919,-0.4519 14.3878,8.6873l4.2986 0.0412 0.0344 -13.2344 -32.8757 -0.058c-0.0563,0.8741 -0.3954,4.1595 0.1912,4.501 0.6407,0.3731 3.4983,-0.4671 4.2956,0.8407 0.6583,1.0797 0.3587,17.2509 0.3593,19.7528 0.0002,1.2259 0.261,3.8297 -0.5229,4.6461 -0.9145,0.9524 -3.1277,0.2793 -4.3504,0.7208z"/>
  <path class="fil0" d="M106.1672 275.5264l1.1784 2.6313 4.2999 -0.0372c0.3154,-2.1155 0.0581,-6.6228 0.0581,-8.9714 -0.0001,-4.9189 -0.7448,-5.1781 4.0809,-5.2528l-0.008 -4.5482 -18.1147 -0.0042 -0.0229 4.4952c4.8457,0.6651 4.8847,-1.3451 4.8033,4.938 -0.0487,3.7671 -1.2297,4.869 -5.0387,4.857 -6.4074,-0.0202 -7.5042,-6.3586 -7.6517,-12.43 -0.4534,-18.6574 11.2417,-14.5346 13.676,-11.887 1.8728,2.0369 1.9867,4.1229 2.7466,7.2671l4.6183 0.0247 0.0674 -14.0331 -4.6065 0.0004 -0.796 2.4937c-1.3352,-0.7354 -2.2626,-1.5154 -3.9616,-2.1469 -4.8212,-1.7918 -10.6495,-1.1424 -14.6735,1.4522 -12.6757,8.173 -10.8624,35.9868 10.1991,34.3609 5.387,-0.4158 7.387,-2.6033 9.1454,-3.2096z"/>
  <path class="fil0" d="M299.0666 264.5325l-4.4738 -0.0217 0.0018 13.7166 4.0416 -0.0055 1.2765 -2.4552c3.6015,1.7356 4.9525,2.7898 9.8915,3.0104 16.337,0.7294 18.1212,-14.8833 10.0328,-20.0356 -6.277,-3.9986 -18.6512,-3.1993 -16.7125,-8.9565 1.0603,-3.1481 6.3716,-3.2017 9.4991,-1.9861 3.2794,1.2747 4.7649,3.4747 5.5793,7.4722l4.4485 0.0194 0.0665 -12.7116c-6.4009,0 -3.2655,-0.0653 -5.1521,2.3404 -3.5904,-1.789 -4.5045,-2.881 -10.2139,-2.808 -4.0976,0.0523 -7.5128,0.966 -9.9613,3.0752 -2.2306,1.9215 -3.8897,5.3211 -3.2246,9.7448 1.539,10.2375 15.7567,8.3411 20.1721,12.3385 1.3292,1.2033 1.3431,3.4624 0.1057,4.8111 -2.9475,3.2133 -14.2754,2.3299 -15.3772,-7.5484z"/>
  <path class="fil2" d="M277.7626 194.0541c4.435,-0.0002 5.7636,-0.4862 5.7636,3.2127l0 29.5096c0,4.6502 -2.7053,2.4091 -5.7689,3.2928l0.0085 2.4439 17.4163 0.0663 0.0705 -2.619c-4.3913,-0.1042 -5.7757,0.6453 -5.7757,-3.1841l0.0093 -14.3732 18.5567 0.0038 0.0048 14.3694c-0.0001,3.6681 -1.3926,3.1717 -5.825,3.1712l0.0527 2.6292 17.4545 -0.0045 0.0453 -2.545c-3.2509,-0.562 -5.8352,1.183 -5.8352,-3.2508l0 -29.6987c0,-3.54 1.5843,-3.0234 5.823,-3.0234l-0.0001 -2.7297 -17.5441 0 0.0042 2.73c6.5724,-0.0008 5.8249,0.1709 5.8249,6.0499 0,2.4075 0.2705,7.2125 -0.0624,9.3345l-18.4663 0.0302c-0.335,-2.7428 -0.0468,-7.5682 -0.0475,-10.4996 -0.0014,-5.7023 0.3497,-4.8192 5.7715,-4.9257l0.0004 -2.7043 -17.4801 -0.0148 -0.0007 2.7296z"/>
  <path class="fil2" d="M200.5108 194.0178c3.5478,0.2519 5.7689,-1.0178 5.7689,3.249l0 29.5096c0,4.2688 -2.3038,2.911 -5.7692,3.2154l0.0184 2.5601c3.98,0.208 8.4409,0.0229 12.4416,0.0229l20.2551 0.0229c1.0903,-0.1021 0.6544,-0.8058 0.8332,-3.8896 0.2184,-3.764 0.5806,-7.9567 0.602,-11.7076l-2.0307 -0.0277c-2.3768,10.8965 -2.9086,13.1575 -15.3094,13.1463 -5.7765,-0.0056 -5.0953,-0.8258 -5.0953,-6.18 0,-3.8681 0,-7.7362 0,-11.6043 2.724,-0.1313 5.2544,0.1238 6.9896,1.7647 1.5313,1.4481 1.7047,3.582 2.1313,5.9899l2.191 0.0232c0.1967,-2.2608 0.0536,-14.881 0.0517,-18.1449l-2.291 0.0223c-0.4524,6.0173 -2.7873,8.0515 -9.0088,7.8724 -0.1848,-1.6259 -0.0651,-10.4584 -0.0638,-12.7845 0.0019,-3.1722 1.1826,-3.1736 5.2845,-3.1332 10.5159,0.1037 11.3102,2.1586 13.484,11.9591l2.2265 0.0156 -0.6186 -14.5321 -32.0911 -0.0618 0 2.6926z"/>
  <path class="fil2" d="M0.0239 229.8558l-0.0239 2.7089 14.0881 0.0079 0.0431 -2.6879c-2.9445,-0.2681 -5.8925,0.0313 -5.2964,-3.7381 0.3888,-2.4585 1.6339,-4.6477 2.3388,-6.9207l14.5469 -0.031c0.6534,0.3454 0.8085,1.4899 1.0476,2.1851 0.6192,1.7994 2.7311,6.6149 2.0504,7.7146 -0.9754,1.1855 -3.6339,0.744 -5.1792,0.7518l-0.0274 2.7266 16.3443 0.0016 0.0195 -2.6396c-4.3366,-0.7121 -3.3484,1.2339 -6.7226,-7.6678 -1.3299,-3.5085 -2.7176,-6.9855 -4.0489,-10.5145 -1.6773,-4.4465 -6.5177,-17.5402 -8.118,-21.0064l-2.0854 -0.0285c-1.4599,3.1379 -2.6774,7.138 -3.9479,10.4449 -1.4735,3.8349 -8.8367,24.2412 -10.0632,26.2581 -1.1327,1.8627 -2.1906,2.3449 -4.9658,2.4351z"/>
  <path class="fil2" d="M116.8118 194.054c5.8012,0 6.0908,-0.383 6.0821,3.9691l0.0002 21.9436c0.1336,9.658 5.8168,13.8444 15.5583,13.6102 10.1183,-0.2432 14.2281,-4.4518 14.5884,-14.5542 0.1396,-3.9158 -0.1683,-19.5031 0.1631,-21.7463 0.5237,-3.5453 2.7999,-3.2222 5.9045,-3.2222l-0.0004 -2.7297 -15.0606 0 -0.0002 2.7295c4.7389,-0.0001 6.3489,-0.2196 6.3489,5.4828l0 17.5923c0,4.0601 0.1654,7.1931 -2.0029,9.9438 -1.6874,2.1406 -4.6857,3.3779 -8.6204,3.374 -7.5547,-0.0074 -10.9539,-3.3099 -10.9539,-10.8587l0 -22.5105c0,-3.531 1.4789,-3.0237 5.765,-3.0234l-0.001 -2.7297 -17.7731 0 0.0019 2.7295z"/>
  <path class="fil2" d="M162.0509 207.1209l2.0848 -0.0045c0.4776,-4.7909 1.7135,-10.307 4.5956,-12.479 1.2068,-0.9096 5.2728,-2.0001 6.899,-0.6951 1.0526,0.8446 0.6726,6.3411 0.6726,8.0537 0,3.9637 0.2255,22.718 -0.0247,25.7311 -0.2747,3.3101 -3.1415,1.8171 -6.3777,2.2895l0.0138 2.5253 18.7045 0.0297 0.0254 -2.4785c-2.4645,-0.8936 -5.9559,1.2635 -6.3402,-2.1772 -0.2045,-1.8303 -0.0444,-22.8137 -0.0444,-25.7307 0,-1.6813 -0.3644,-7.0425 0.4975,-8.0847 1.2412,-1.5006 5.6492,-0.3034 6.9473,0.52 3.1223,1.9811 4.3022,7.8836 4.7513,12.4788l2.0787 0.0318 -0.8155 -15.7415 -32.9181 -0.0662 -0.7499 15.7974z"/>
  <path class="fil2" d="M273.8549 218.5063l-2.4346 -0.2851c-0.7868,1.6434 -0.7737,5.6973 -4.548,9.4979 -2.7925,2.8119 -6.6688,3.7931 -10.7444,2.8047 -7.4516,-1.8073 -8.9117,-10.6565 -8.7874,-19.2588 0.1217,-8.4167 1.9037,-17.1512 9.8266,-18.2301 11.5839,-1.5776 12.9413,12.8729 13.6808,14.2449l1.9837 -0.0643 -0.6735 -16.5424 -2.1109 -0.0336 -1.9947 3.4495c-1.1605,-0.5473 -2.1396,-1.8417 -4.8493,-2.7951 -10.5743,-3.7209 -19.9026,3.8999 -22.3282,14.6004 -0.9647,4.2559 -0.8455,9.6606 0.3736,13.7835 4.6636,15.7724 21.1809,17.0393 28.0234,9.6849 1.8159,-1.9518 4.6217,-6.8221 4.583,-10.8564z"/>
  <path class="fil2" d="M75.4596 218.4993l-2.4479 -0.2758c-0.8472,1.9421 -0.8962,5.9554 -4.5338,9.5095 -2.4342,2.3783 -6.0368,3.9225 -10.7525,2.7975 -7.4832,-1.7855 -8.9032,-10.7776 -8.7783,-19.2656 0.1236,-8.4087 1.8955,-17.1358 9.812,-18.228 11.5363,-1.5916 12.8315,12.5146 13.6794,14.2339l1.9947 -0.0517 -0.667 -16.5552 -2.1163 -0.0211 -1.9886 3.4642c-1.7001,-0.9301 -2.0265,-1.7814 -4.8651,-2.8147 -6.3666,-2.3176 -12.8948,-0.1342 -17.1447,4.4542 -11.178,12.0683 -5.9572,37.6116 12.1145,37.9315 3.7797,0.0669 7.2214,-0.9902 10.0133,-3.3221 2.5349,-2.1174 5.7413,-7.4636 5.6804,-11.8567z"/>
  <path class="fil2" d="M113.595 218.53l-2.5602 -0.3296c-1.0821,7.4593 -6.2446,14.4301 -15.117,12.345 -7.485,-1.759 -8.9789,-10.5904 -8.8505,-19.2803 0.1262,-8.5361 1.93,-17.1884 9.8774,-18.2372 8.4518,-1.1153 12.4944,6.8678 13.5135,14.2736l2.059 -0.0715 -0.6291 -16.5047 -1.81 -0.0954c-0.7351,0.3161 -1.9383,2.7422 -2.221,3.4947 -1.5848,-0.5898 -4.2234,-4.292 -11.757,-3.6303 -15.0593,1.3228 -21.4951,23.4094 -11.2171,36.6987 6.1165,7.9085 18.1538,8.6174 24.1168,2.1004 1.9947,-2.1799 4.5406,-6.4668 4.5952,-10.7634z"/>
  <path class="fil0" d="M117.1665 247.4466c5.8145,0.5652 5.0607,-2.3286 5.0607,12.8117 0,2.9636 -0.0002,5.9272 0.0012,8.8907 0.0025,5.0231 -0.7825,3.719 -5.0099,4.1151l-0.0593 4.4732 19.5652 0.0587 0.0785 -4.565c-6.0754,-0.0001 -5.1296,1.132 -5.1296,-12.7835 0,-3.0278 -0.0017,-6.0555 -0.0013,-9.0831 0.0006,-4.5097 0.8759,-3.8815 5.1235,-3.8828l-0.0168 -4.5638 -19.5866 0.0035 -0.0257 4.5254z"/>
  <path class="fil3" d="M172.5778 113.9845c0.1104,-1.0182 -0.2155,-0.4257 0.3141,-1.2594l0.9521 -1.9062c0.3532,-0.8162 0.0645,-0.527 0.6497,-1.2202 1.2081,-1.4311 0.2792,-0.3056 0.8821,-1.7849l0.122 -0.2501c0.0186,-0.0378 0.0472,-0.0841 0.0665,-0.1215 0.5921,-1.1558 0.6479,-2.1519 0.7731,-3.6195 0.1838,-2.155 0.5925,-6.7072 -0.2664,-9.063l-0.8676 -2.4795 2.8673 -0.0874c-0.5438,-0.5046 -8.3034,-0.0047 -10.1948,-0.2661l-0.7675 -2.3578c1.8583,0.0004 3.7166,0.0061 5.575,0.0086 0.7813,0.0011 4.4857,0.2541 5.0436,-0.2208 -1.7932,-0.4283 -3.1215,0.5549 -4.003,-0.9332 -0.3887,-0.6563 0.4191,0.572 -0.1303,-0.254 -0.3575,-0.5376 -0.4611,-0.3792 -0.8296,-0.7046l-2.2717 -2.8244c-0.0271,-0.0299 -0.0632,-0.0729 -0.0912,-0.1019l-0.9556 -0.9341c-0.0291,-0.0284 -0.0694,-0.0677 -0.1,-0.0948l-1.351 -1.1176c-0.0351,-0.0235 -0.0832,-0.051 -0.1193,-0.0733l-0.2463 -0.1371c-2.6037,-1.4529 -0.7766,-0.9659 -4.5455,-2.4596l-2.6913 -1.0598c0.4472,2.1249 8.8777,25.8961 10.5189,30.9106 0.3265,0.9976 1.0176,3.7739 1.6667,4.4117z"/>
  <path class="fil1" d="M122.6431 99.946l16.864 0.0305c-0.0854,-0.9126 -1.5999,-4.6624 -2.0008,-5.8063l-4.1716 -11.7198c-0.3645,-1.0526 -1.677,-5.3901 -2.2624,-5.8248 -0.1931,0.2082 -8.1578,21.9319 -8.4293,23.3204z"/>
  <path class="fil2" d="M157.5231 61.2583c-0.0089,0.9381 0.5337,1.8652 0.756,2.6911 5.0823,-0.0914 22.7655,-0.7619 26.5746,-0.1033 6.0414,1.0447 8.9176,4.1918 10.616,9.4371 0.5434,1.678 0.8569,3.8909 1.3803,5.3937 0.5731,0.1189 1.3504,0.1236 1.8814,-0.0654 0.2565,-1.0004 -0.1096,-5.6848 -0.1127,-7.1384 -0.0066,-3.0501 -0.2652,-5.7941 -0.2267,-8.9041 0.0219,-1.7679 0.4155,-1.4371 -4.1466,-1.4371 -5.8862,0 -35.7102,-0.2486 -36.7224,0.1264z"/>
  <path class="fil2" d="M177.7271 89.3567c-0.558,0.4749 -4.2623,0.2219 -5.0436,0.2208 -1.8584,-0.0025 -3.7167,-0.0083 -5.575,-0.0086l0.7675 2.3578c1.8913,0.2614 9.6509,-0.2385 10.1948,0.2661 3.8713,-0.5697 6.4729,2.4347 7.1463,6.0832 0.6327,3.4282 -0.6432,4.8045 2.9576,4.0169 0.1137,-7.2389 -0.0835,-14.5159 0.0219,-21.7575 0.0207,-1.4304 0.1297,-1.3142 -1.3267,-1.3104 -1.5718,0.0043 -1.2993,-0.0457 -1.404,1.4308 -0.2231,3.1429 -0.4702,6.1115 -3.2943,7.6852 -1.162,0.6474 -3.0087,1.2298 -4.4445,1.0157z"/>
  <path class="fil4" d="M146.6111 87.7422c0.399,1.7271 6.0638,16.2106 7.2241,19.4306 0.3743,1.0386 1.896,5.6742 2.4976,6.2072l0.2431 -1.505c0.0038,-0.017 0.0078,-0.0727 0.0251,-0.1037 0.043,0.0266 0.1132,0.0043 0.1384,0.0617l1.1041 0.0558c0.4728,-0.1122 0.1268,-0.1865 1.0326,-0.1275 0.1003,-0.2917 -0.8959,-0.2414 1.2593,-0.4231 -1.3491,-4.8852 -4.6087,-13.7435 -6.5133,-19.2738 -0.3792,-1.1008 -0.7449,-2.1898 -1.1095,-3.2545l-1.0002 -2.7852c-0.1628,-0.2738 -0.0953,-0.1861 -0.2765,-0.3697 -0.2204,0.4174 0.1219,0.7577 -1.9174,0.851 0.706,0.1387 0.3709,0.2307 0.3622,0.3622l-0.7891 0.3857c-1.9298,0.5837 -0.5998,-0.1395 -0.9289,0.3726l-0.0829 0.1446c-0.4005,0.3405 -0.8031,0.3729 -1.2688,-0.0287z"/>
  <path class="fil1" d="M12.2672 216.2512l12.6765 0.005 -6.3804 -16.3807c-0.4495,0.5153 -0.599,1.1838 -0.8583,1.8634l-5.4379 14.5122z"/>
  <path class="fil1" d="M267.7878 257.295c5.7461,0.182 10.1624,0.6133 10.0268,-4.9845 -0.1363,-5.6224 -5.016,-4.898 -9.9209,-4.8218l-0.1058 9.8062z"/>
  <path class="fil3" d="M146.0093 117.8172l-5.1017 -13.9708c-1.2703,-0.2913 -3.8293,-0.1327 -5.2411,-0.1108 0.1082,1.5519 1.0838,3.9962 1.8235,5.1764 0.0208,0.0334 0.0542,0.0765 0.0742,0.1103l1.3313 2.0841c0.9821,1.3608 0.5711,1.4915 2.8344,3.2633l1.6973 1.3489c1.0146,0.5774 1.4221,1.0532 2.0433,1.6826 0.361,0.3658 0.0429,0.1579 0.5388,0.4158z"/>
  <path class="fil3" d="M143.154 78.579l3.4571 9.1631c0.4658,0.4016 0.8683,0.3693 1.2688,0.0287l0.0829 -0.1446c0.3292,-0.5121 -1.0009,0.2111 0.9289,-0.3726l0.7891 -0.3857c0.0087,-0.1315 0.3438,-0.2235 -0.3622,-0.3622 2.0393,-0.0933 1.697,-0.4336 1.9174,-0.851 0.0485,-0.6067 -2.7409,-8.909 -3.2218,-9.4271l-0.6393 0.9523 -1.8795 0.5822c-0.9018,0.3652 -1.2615,0.8986 -2.3414,0.817z"/>
  <path class="fil3" d="M156.3328 113.3799c0.0499,1.1244 0.7017,2.2989 1.1067,3.4072 0.3353,0.9177 0.7346,2.521 1.333,3.0588l0.042 -0.4018c-0.0006,0.0001 0.2972,0.1151 0.8021,-0.0679l0.9307 -0.3858c0.3623,-0.1007 0.6503,-0.143 0.9086,-0.2403 0.231,-0.087 0.2188,-0.0999 0.4077,-0.1887 0.5412,-0.2543 -0.1734,-0.0704 0.5214,-0.2461l-2.2497 -6.9772c-2.1551,0.1818 -1.1589,0.1315 -1.2593,0.4231 -0.9058,-0.059 -0.5598,0.0153 -1.0326,0.1275l-1.1041 -0.0558c-0.0253,-0.0574 -0.0954,-0.0351 -0.1384,-0.0617 -0.0174,0.031 -0.0213,0.0867 -0.0251,0.1037l-0.2431 1.505z"/>
 </g>
</svg>
