<?xml version="1.0" encoding="UTF-8"?>
<!DOCTYPE svg PUBLIC "-//W3C//DTD SVG 1.1//EN" "http://www.w3.org/Graphics/SVG/1.1/DTD/svg11.dtd">
<!-- Creator: CorelDRAW 2019 (64-Bit) -->
<svg xmlns="http://www.w3.org/2000/svg" xml:space="preserve" width="10.5834mm" height="10.5834mm" version="1.1" style="shape-rendering:geometricPrecision; text-rendering:geometricPrecision; image-rendering:optimizeQuality; fill-rule:evenodd; clip-rule:evenodd"
viewBox="0 0 3.6377 3.6377"
 xmlns:xlink="http://www.w3.org/1999/xlink">
 <defs>
  <style type="text/css">
   <![CDATA[
    .fil2 {fill:black}
    .fil1 {fill:url(#id1);fill-rule:nonzero}
    .fil0 {fill:url(#id2);fill-rule:nonzero}
   ]]>
  </style>
    <clipPath id="id0">
     <rect width="3.6377" height="3.6377"/>
    </clipPath>
  <linearGradient id="id1" gradientUnits="userSpaceOnUse" x1="1.8197" y1="3.2268" x2="1.8197" y2="0.2085">
   <stop offset="0" style="stop-opacity:1; stop-color:#F8F9FD"/>
   <stop offset="1" style="stop-opacity:1; stop-color:#DFE3F3"/>
  </linearGradient>
  <linearGradient id="id2" gradientUnits="userSpaceOnUse" x1="1.8197" y1="3.1928" x2="1.8197" y2="0.2426">
   <stop offset="0" style="stop-opacity:1; stop-color:#FEFEFE"/>
   <stop offset="1" style="stop-opacity:1; stop-color:#DFE3F3"/>
  </linearGradient>
 </defs>
 <g id="Layer_x0020_1">
  <metadata id="CorelCorpID_0Corel-Layer"/>
  <g id="_2455427548080">
   <g style="clip-path:url(#id0)">
    <image x="-0" y="0" width="3.6377" height="3.6377" xlink:href="LOGOUT BUTTON BIG_F_Images\LOGOUT BUTTON BIG_F_ImgID1.png"/>
   </g>
   <g>
    <path class="fil0" d="M0.3479 1.7177c0,0.8147 0.6589,1.4751 1.4718,1.4751 0.8128,0 1.4718,-0.6604 1.4718,-1.4751 0,-0.8147 -0.6589,-1.4751 -1.4718,-1.4751 -0.8129,0 -1.4718,0.6604 -1.4718,1.4751z"/>
    <path class="fil1" d="M1.8197 3.1587l0 0 -0.0093 -0 -0.0093 -0.0001 -0.0093 -0.0001 -0.0092 -0.0002 -0.0093 -0.0003 -0.0092 -0.0003 -0.0092 -0.0004 -0.0092 -0.0004 -0.0092 -0.0005 -0.0092 -0.0005 -0.0091 -0.0006 -0.0091 -0.0007 -0.0091 -0.0007 -0.0091 -0.0008 -0.0091 -0.0009 -0.0091 -0.0009 -0.0091 -0.001 -0.009 -0.001 -0.009 -0.0011 -0.009 -0.0011 -0.009 -0.0012 -0.009 -0.0012 -0.0089 -0.0013 -0.0089 -0.0013 -0.0089 -0.0014 -0.0089 -0.0014 -0.0089 -0.0015 -0.0088 -0.0015 -0.0088 -0.0016 -0.0088 -0.0017 -0.0088 -0.0017 -0.0088 -0.0018 -0.0088 -0.0018 -0.0088 -0.0019 -0.0087 -0.0019 -0.0087 -0.002 -0.0087 -0.002 -0.0087 -0.0021 -0.0086 -0.0021 -0.0086 -0.0022 -0.0086 -0.0022 -0.0086 -0.0023 -0.0086 -0.0024 -0.0085 -0.0024 -0.0085 -0.0024 -0.0085 -0.0025 -0.0084 -0.0025 -0.0085 -0.0026 -0.0084 -0.0026 -0.0084 -0.0027 -0.0084 -0.0027 -0.0084 -0.0028 -0.0084 -0.0029 -0.0083 -0.0029 -0.0083 -0.003 -0.0083 -0.003 -0.0082 -0.0031 -0.0082 -0.0031 -0.0082 -0.0032 -0.0081 -0.0032 -0.0082 -0.0033 -0.0081 -0.0033 -0.0081 -0.0034 -0.0081 -0.0034 -0.008 -0.0035 -0.008 -0.0035 -0.008 -0.0035 -0.008 -0.0036 -0.0079 -0.0036 -0.0079 -0.0037 -0.0079 -0.0037 -0.0079 -0.0037 -0.0078 -0.0038 -0.0078 -0.0039 -0.0078 -0.0039 -0.0077 -0.004 -0.0078 -0.004 -0.0077 -0.004 -0.0077 -0.0041 -0.0076 -0.0042 -0.0076 -0.0042 -0.0076 -0.0042 -0.0076 -0.0043 -0.0075 -0.0043 -0.0075 -0.0044 -0.0075 -0.0044 -0.0075 -0.0045 -0.0074 -0.0045 -0.0074 -0.0045 -0.0074 -0.0046 -0.0073 -0.0046 -0.0073 -0.0047 -0.0073 -0.0047 -0.0072 -0.0047 -0.0072 -0.0048 -0.0072 -0.0048 -0.0071 -0.0049 -0.0071 -0.0049 -0.0071 -0.0049 -0.0071 -0.005 -0.007 -0.005 -0.007 -0.0051 -0.007 -0.0052 -0.0069 -0.0052 -0.0069 -0.0052 -0.0069 -0.0053 -0.0068 -0.0053 -0.0068 -0.0053 -0.0068 -0.0054 -0.0068 -0.0054 -0.0067 -0.0054 -0.0067 -0.0055 -0.0066 -0.0055 -0.0066 -0.0056 -0.0066 -0.0056 -0.0065 -0.0056 -0.0065 -0.0057 -0.0065 -0.0057 -0.0064 -0.0058 -0.0064 -0.0058 -0.0064 -0.0058 -0.0064 -0.0059 -0.0063 -0.0059 -0.0063 -0.0059 -0.0062 -0.006 -0.0062 -0.006 -0.0062 -0.006 -0.0061 -0.0061 -0.0061 -0.0062 -0.006 -0.0062 -0.006 -0.0062 -0.006 -0.0062 -0.0059 -0.0063 -0.0059 -0.0063 -0.0059 -0.0064 -0.0058 -0.0064 -0.0058 -0.0064 -0.0058 -0.0064 -0.0057 -0.0065 -0.0057 -0.0065 -0.0056 -0.0065 -0.0056 -0.0066 -0.0056 -0.0066 -0.0055 -0.0067 -0.0055 -0.0067 -0.0054 -0.0067 -0.0054 -0.0068 -0.0053 -0.0068 -0.0053 -0.0068 -0.0053 -0.0069 -0.0053 -0.0069 -0.0052 -0.0069 -0.0052 -0.0069 -0.0051 -0.007 -0.0051 -0.007 -0.0051 -0.007 -0.005 -0.0071 -0.0049 -0.0071 -0.0049 -0.0071 -0.0048 -0.0071 -0.0048 -0.0072 -0.0048 -0.0072 -0.0047 -0.0073 -0.0047 -0.0073 -0.0047 -0.0073 -0.0046 -0.0074 -0.0046 -0.0074 -0.0045 -0.0074 -0.0045 -0.0075 -0.0044 -0.0075 -0.0044 -0.0075 -0.0043 -0.0076 -0.0043 -0.0075 -0.0043 -0.0076 -0.0042 -0.0076 -0.0042 -0.0076 -0.0041 -0.0077 -0.0041 -0.0077 -0.004 -0.0077 -0.004 -0.0078 -0.004 -0.0078 -0.0039 -0.0078 -0.0039 -0.0078 -0.0038 -0.0078 -0.0038 -0.0079 -0.0037 -0.0079 -0.0037 -0.0079 -0.0036 -0.008 -0.0036 -0.008 -0.0035 -0.008 -0.0035 -0.008 -0.0034 -0.0081 -0.0034 -0.0081 -0.0033 -0.0081 -0.0033 -0.0081 -0.0033 -0.0082 -0.0032 -0.0082 -0.0032 -0.0082 -0.0031 -0.0082 -0.0031 -0.0082 -0.003 -0.0083 -0.003 -0.0083 -0.0029 -0.0083 -0.0029 -0.0084 -0.0028 -0.0084 -0.0028 -0.0084 -0.0027 -0.0084 -0.0026 -0.0085 -0.0026 -0.0085 -0.0025 -0.0085 -0.0025 -0.0085 -0.0024 -0.0086 -0.0024 -0.0085 -0.0023 -0.0086 -0.0023 -0.0086 -0.0022 -0.0086 -0.0022 -0.0086 -0.0021 -0.0087 -0.0021 -0.0087 -0.002 -0.0087 -0.002 -0.0087 -0.0019 -0.0087 -0.0019 -0.0088 -0.0018 -0.0088 -0.0018 -0.0088 -0.0017 -0.0088 -0.0017 -0.0088 -0.0016 -0.0088 -0.0016 -0.0089 -0.0015 -0.0089 -0.0014 -0.0089 -0.0014 -0.0089 -0.0013 -0.009 -0.0013 -0.009 -0.0012 -0.009 -0.0012 -0.009 -0.0011 -0.009 -0.0011 -0.009 -0.001 -0.009 -0.001 -0.0091 -0.0009 -0.0091 -0.0008 -0.0091 -0.0008 -0.0091 -0.0007 -0.0091 -0.0007 -0.0092 -0.0006 -0.0092 -0.0005 -0.0092 -0.0005 -0.0092 -0.0004 -0.0092 -0.0004 -0.0092 -0.0003 -0.0092 -0.0003 -0.0093 -0.0002 -0.0093 -0.0001 -0.0093 -0.0001 -0.0093 -0 -0.0093 -0.068 0 0 0.0097 0.0001 0.0098 0.0002 0.0097 0.0002 0.0097 0.0003 0.0097 0.0003 0.0097 0.0004 0.0097 0.0005 0.0096 0.0005 0.0097 0.0006 0.0096 0.0006 0.0096 0.0007 0.0096 0.0008 0.0096 0.0008 0.0095 0.0009 0.0096 0.0009 0.0095 0.001 0.0095 0.001 0.0095 0.0011 0.0095 0.0011 0.0095 0.0012 0.0094 0.0013 0.0094 0.0013 0.0094 0.0014 0.0094 0.0015 0.0094 0.0015 0.0093 0.0015 0.0093 0.0016 0.0093 0.0017 0.0093 0.0018 0.0092 0.0018 0.0092 0.0019 0.0092 0.0019 0.0092 0.002 0.0092 0.002 0.0091 0.0021 0.0091 0.0022 0.0091 0.0022 0.0091 0.0022 0.0091 0.0023 0.009 0.0023 0.009 0.0024 0.009 0.0025 0.009 0.0025 0.0089 0.0025 0.0089 0.0026 0.0089 0.0027 0.0089 0.0027 0.0089 0.0028 0.0088 0.0029 0.0089 0.0029 0.0088 0.003 0.0088 0.003 0.0087 0.0031 0.0088 0.0031 0.0087 0.0031 0.0087 0.0032 0.0087 0.0033 0.0087 0.0033 0.0086 0.0034 0.0086 0.0034 0.0085 0.0034 0.0085 0.0035 0.0085 0.0035 0.0085 0.0036 0.0085 0.0037 0.0084 0.0037 0.0084 0.0037 0.0084 0.0038 0.0084 0.0038 0.0083 0.0039 0.0083 0.0039 0.0082 0.004 0.0082 0.0041 0.0082 0.0041 0.0082 0.0042 0.0081 0.0042 0.0081 0.0042 0.0081 0.0043 0.008 0.0043 0.008 0.0044 0.008 0.0044 0.008 0.0045 0.0079 0.0045 0.0079 0.0046 0.0079 0.0046 0.0078 0.0047 0.0078 0.0047 0.0078 0.0047 0.0078 0.0048 0.0077 0.0048 0.0077 0.0049 0.0077 0.0049 0.0076 0.0049 0.0076 0.005 0.0076 0.0051 0.0075 0.0051 0.0075 0.0052 0.0075 0.0052 0.0075 0.0052 0.0074 0.0052 0.0074 0.0053 0.0074 0.0054 0.0073 0.0054 0.0073 0.0054 0.0072 0.0055 0.0072 0.0055 0.0072 0.0056 0.0071 0.0056 0.0071 0.0056 0.007 0.0057 0.007 0.0057 0.007 0.0058 0.0069 0.0058 0.0069 0.0058 0.0069 0.0059 0.0069 0.0059 0.0068 0.0059 0.0068 0.006 0.0067 0.006 0.0067 0.0061 0.0067 0.0061 0.0066 0.0062 0.0066 0.0062 0.0066 0.0063 0.0065 0.0063 0.0065 0.0063 0.0064 0.0064 0.0064 0.0064 0.0064 0.0064 0.0063 0.0065 0.0063 0.0065 0.0063 0.0066 0.0063 0.0066 0.0062 0.0066 0.0062 0.0067 0.0061 0.0067 0.006 0.0067 0.006 0.0068 0.006 0.0068 0.006 0.0069 0.0059 0.0069 0.0058 0.0069 0.0058 0.0069 0.0058 0.007 0.0058 0.007 0.0057 0.007 0.0056 0.0071 0.0056 0.0071 0.0056 0.0071 0.0055 0.0072 0.0055 0.0072 0.0054 0.0073 0.0054 0.0073 0.0054 0.0073 0.0053 0.0074 0.0053 0.0074 0.0053 0.0075 0.0052 0.0074 0.0052 0.0075 0.0051 0.0075 0.0051 0.0075 0.005 0.0076 0.005 0.0076 0.0049 0.0076 0.0049 0.0077 0.0048 0.0077 0.0048 0.0077 0.0048 0.0078 0.0047 0.0078 0.0047 0.0079 0.0046 0.0078 0.0046 0.0079 0.0045 0.0079 0.0045 0.0079 0.0044 0.008 0.0044 0.008 0.0043 0.0081 0.0043 0.0081 0.0043 0.0081 0.0042 0.0081 0.0042 0.0082 0.0041 0.0082 0.004 0.0082 0.004 0.0082 0.0039 0.0082 0.0039 0.0083 0.0038 0.0083 0.0038 0.0084 0.0037 0.0084 0.0037 0.0084 0.0036 0.0084 0.0036 0.0085 0.0035 0.0085 0.0035 0.0085 0.0035 0.0085 0.0034 0.0086 0.0033 0.0086 0.0033 0.0086 0.0033 0.0086 0.0032 0.0087 0.0032 0.0087 0.0031 0.0087 0.0031 0.0088 0.003 0.0087 0.0029 0.0088 0.0029 0.0088 0.0029 0.0088 0.0028 0.0088 0.0027 0.0089 0.0027 0.0089 0.0026 0.0089 0.0026 0.009 0.0025 0.0089 0.0025 0.009 0.0024 0.009 0.0023 0.009 0.0023 0.009 0.0022 0.0091 0.0022 0.0091 0.0022 0.0091 0.0021 0.0091 0.002 0.0092 0.002 0.0092 0.0019 0.0092 0.0019 0.0092 0.0018 0.0092 0.0018 0.0093 0.0017 0.0093 0.0016 0.0093 0.0016 0.0093 0.0015 0.0093 0.0015 0.0094 0.0014 0.0094 0.0013 0.0094 0.0013 0.0094 0.0012 0.0095 0.0012 0.0095 0.0011 0.0095 0.0011 0.0095 0.001 0.0095 0.0009 0.0095 0.0009 0.0095 0.0008 0.0096 0.0008 0.0096 0.0007 0.0096 0.0007 0.0096 0.0005 0.0096 0.0005 0.0096 0.0005 0.0097 0.0004 0.0097 0.0003 0.0097 0.0003 0.0097 0.0002 0.0097 0.0001 0.0097 0.0001 0.0097 0 0 0zm1.4378 -1.5092l0 0 -0 0.0093 -0.0001 0.0093 -0.0001 0.0093 -0.0002 0.0093 -0.0002 0.0093 -0.0003 0.0092 -0.0004 0.0092 -0.0004 0.0092 -0.0005 0.0092 -0.0005 0.0092 -0.0006 0.0092 -0.0007 0.0092 -0.0007 0.0091 -0.0008 0.0091 -0.0008 0.0091 -0.0009 0.0091 -0.001 0.0091 -0.001 0.009 -0.0011 0.009 -0.0011 0.009 -0.0012 0.009 -0.0012 0.009 -0.0013 0.009 -0.0013 0.009 -0.0014 0.0089 -0.0015 0.0089 -0.0015 0.0089 -0.0015 0.0089 -0.0016 0.0088 -0.0016 0.0088 -0.0017 0.0088 -0.0018 0.0088 -0.0018 0.0088 -0.0019 0.0088 -0.002 0.0087 -0.002 0.0087 -0.002 0.0087 -0.0021 0.0087 -0.0021 0.0087 -0.0022 0.0086 -0.0022 0.0086 -0.0023 0.0086 -0.0023 0.0086 -0.0024 0.0085 -0.0024 0.0086 -0.0025 0.0085 -0.0025 0.0085 -0.0026 0.0085 -0.0026 0.0085 -0.0027 0.0084 -0.0027 0.0084 -0.0028 0.0084 -0.0029 0.0084 -0.0029 0.0083 -0.003 0.0083 -0.003 0.0083 -0.003 0.0082 -0.0031 0.0082 -0.0031 0.0082 -0.0032 0.0082 -0.0032 0.0082 -0.0033 0.0081 -0.0033 0.0081 -0.0034 0.0081 -0.0034 0.0081 -0.0035 0.008 -0.0035 0.008 -0.0036 0.008 -0.0036 0.008 -0.0037 0.0079 -0.0037 0.0079 -0.0038 0.0079 -0.0038 0.0078 -0.0038 0.0078 -0.0039 0.0078 -0.004 0.0078 -0.004 0.0078 -0.004 0.0077 -0.0041 0.0077 -0.0041 0.0077 -0.0042 0.0076 -0.0042 0.0076 -0.0043 0.0076 -0.0043 0.0075 -0.0044 0.0076 -0.0044 0.0075 -0.0044 0.0075 -0.0045 0.0075 -0.0045 0.0074 -0.0046 0.0074 -0.0046 0.0074 -0.0046 0.0073 -0.0047 0.0073 -0.0047 0.0073 -0.0048 0.0072 -0.0048 0.0072 -0.0049 0.0071 -0.0049 0.0071 -0.0049 0.0071 -0.005 0.0071 -0.005 0.007 -0.0051 0.007 -0.0051 0.007 -0.0052 0.0069 -0.0052 0.0069 -0.0052 0.0069 -0.0053 0.0069 -0.0053 0.0068 -0.0054 0.0068 -0.0054 0.0068 -0.0054 0.0067 -0.0055 0.0067 -0.0055 0.0067 -0.0056 0.0066 -0.0056 0.0066 -0.0056 0.0065 -0.0057 0.0065 -0.0057 0.0065 -0.0057 0.0064 -0.0058 0.0064 -0.0058 0.0064 -0.0058 0.0064 -0.0059 0.0063 -0.0059 0.0063 -0.0059 0.0062 -0.006 0.0062 -0.006 0.0062 -0.0061 0.0062 -0.0061 0.0061 -0.0062 0.006 -0.0062 0.006 -0.0062 0.006 -0.0063 0.0059 -0.0063 0.0059 -0.0063 0.0059 -0.0064 0.0058 -0.0064 0.0058 -0.0064 0.0058 -0.0065 0.0057 -0.0065 0.0057 -0.0065 0.0056 -0.0066 0.0056 -0.0066 0.0056 -0.0067 0.0055 -0.0067 0.0055 -0.0067 0.0054 -0.0067 0.0054 -0.0068 0.0054 -0.0068 0.0053 -0.0068 0.0053 -0.0069 0.0053 -0.0069 0.0052 -0.0069 0.0052 -0.007 0.0052 -0.007 0.0051 -0.007 0.005 -0.007 0.005 -0.0071 0.0049 -0.0071 0.0049 -0.0071 0.0049 -0.0072 0.0048 -0.0072 0.0048 -0.0073 0.0047 -0.0073 0.0047 -0.0073 0.0047 -0.0073 0.0046 -0.0074 0.0046 -0.0074 0.0045 -0.0075 0.0045 -0.0074 0.0045 -0.0075 0.0044 -0.0075 0.0044 -0.0075 0.0043 -0.0076 0.0043 -0.0076 0.0042 -0.0076 0.0042 -0.0077 0.0042 -0.0077 0.0041 -0.0077 0.004 -0.0078 0.004 -0.0077 0.004 -0.0078 0.0039 -0.0078 0.0039 -0.0078 0.0038 -0.0079 0.0037 -0.0079 0.0037 -0.0079 0.0037 -0.0079 0.0036 -0.008 0.0036 -0.008 0.0035 -0.008 0.0035 -0.008 0.0035 -0.0081 0.0034 -0.0081 0.0034 -0.0081 0.0033 -0.0081 0.0033 -0.0082 0.0032 -0.0082 0.0032 -0.0082 0.0031 -0.0082 0.0031 -0.0083 0.003 -0.0083 0.003 -0.0083 0.0029 -0.0084 0.0029 -0.0084 0.0028 -0.0084 0.0027 -0.0084 0.0027 -0.0084 0.0026 -0.0085 0.0026 -0.0085 0.0025 -0.0085 0.0025 -0.0085 0.0024 -0.0086 0.0024 -0.0086 0.0024 -0.0086 0.0023 -0.0086 0.0022 -0.0086 0.0022 -0.0087 0.0021 -0.0087 0.0021 -0.0087 0.002 -0.0087 0.002 -0.0087 0.0019 -0.0088 0.0019 -0.0088 0.0018 -0.0088 0.0018 -0.0088 0.0017 -0.0088 0.0017 -0.0088 0.0016 -0.0089 0.0015 -0.0089 0.0015 -0.0089 0.0014 -0.0089 0.0014 -0.0089 0.0013 -0.0089 0.0013 -0.009 0.0012 -0.009 0.0012 -0.009 0.0011 -0.009 0.0011 -0.009 0.001 -0.009 0.001 -0.0091 0.0009 -0.0091 0.0009 -0.0091 0.0008 -0.0091 0.0007 -0.0091 0.0007 -0.0091 0.0006 -0.0092 0.0005 -0.0092 0.0005 -0.0092 0.0004 -0.0092 0.0004 -0.0092 0.0003 -0.0092 0.0003 -0.0093 0.0002 -0.0092 0.0001 -0.0093 0.0001 -0.0093 0 0 0.0681 0.0097 -0 0.0098 -0.0001 0.0097 -0.0001 0.0097 -0.0002 0.0097 -0.0003 0.0097 -0.0003 0.0097 -0.0004 0.0096 -0.0005 0.0096 -0.0005 0.0096 -0.0005 0.0096 -0.0007 0.0096 -0.0007 0.0096 -0.0008 0.0096 -0.0008 0.0095 -0.0009 0.0095 -0.0009 0.0095 -0.001 0.0095 -0.0011 0.0095 -0.0011 0.0094 -0.0012 0.0094 -0.0012 0.0094 -0.0013 0.0094 -0.0013 0.0093 -0.0014 0.0093 -0.0015 0.0093 -0.0015 0.0093 -0.0016 0.0093 -0.0016 0.0093 -0.0017 0.0092 -0.0018 0.0092 -0.0018 0.0092 -0.0019 0.0091 -0.0019 0.0092 -0.002 0.0091 -0.002 0.0091 -0.0021 0.0091 -0.0022 0.0091 -0.0022 0.009 -0.0022 0.009 -0.0023 0.009 -0.0023 0.009 -0.0024 0.009 -0.0025 0.0089 -0.0025 0.0089 -0.0026 0.0089 -0.0026 0.0089 -0.0027 0.0089 -0.0027 0.0088 -0.0028 0.0088 -0.0029 0.0088 -0.0029 0.0088 -0.0029 0.0087 -0.003 0.0087 -0.0031 0.0087 -0.0031 0.0086 -0.0032 0.0086 -0.0032 0.0087 -0.0033 0.0086 -0.0033 0.0086 -0.0033 0.0085 -0.0034 0.0085 -0.0035 0.0085 -0.0035 0.0085 -0.0035 0.0085 -0.0036 0.0084 -0.0036 0.0084 -0.0037 0.0084 -0.0037 0.0083 -0.0038 0.0083 -0.0038 0.0083 -0.0039 0.0082 -0.0039 0.0082 -0.004 0.0082 -0.004 0.0082 -0.0041 0.0081 -0.0042 0.0081 -0.0042 0.0081 -0.0043 0.008 -0.0043 0.008 -0.0043 0.008 -0.0044 0.008 -0.0044 0.0079 -0.0045 0.0079 -0.0045 0.0079 -0.0046 0.0078 -0.0046 0.0078 -0.0047 0.0078 -0.0047 0.0078 -0.0048 0.0077 -0.0048 0.0077 -0.0048 0.0077 -0.0049 0.0076 -0.0049 0.0076 -0.005 0.0076 -0.005 0.0075 -0.0051 0.0075 -0.0051 0.0075 -0.0052 0.0074 -0.0052 0.0074 -0.0053 0.0074 -0.0053 0.0074 -0.0053 0.0073 -0.0054 0.0073 -0.0054 0.0072 -0.0054 0.0072 -0.0055 0.0071 -0.0055 0.0071 -0.0056 0.0071 -0.0056 0.007 -0.0056 0.007 -0.0057 0.007 -0.0058 0.007 -0.0058 0.0069 -0.0058 0.0069 -0.0058 0.0068 -0.0059 0.0068 -0.006 0.0068 -0.006 0.0067 -0.006 0.0067 -0.006 0.0067 -0.0061 0.0066 -0.0062 0.0066 -0.0062 0.0066 -0.0063 0.0065 -0.0063 0.0065 -0.0063 0.0064 -0.0063 0.0064 -0.0064 0.0063 -0.0064 0.0064 -0.0064 0.0063 -0.0065 0.0063 -0.0065 0.0062 -0.0066 0.0062 -0.0066 0.0062 -0.0066 0.0061 -0.0067 0.006 -0.0067 0.006 -0.0067 0.006 -0.0068 0.0059 -0.0068 0.0059 -0.0069 0.0059 -0.0069 0.0058 -0.0069 0.0057 -0.0069 0.0058 -0.007 0.0057 -0.007 0.0056 -0.007 0.0056 -0.0071 0.0055 -0.0071 0.0055 -0.0072 0.0055 -0.0072 0.0054 -0.0072 0.0054 -0.0073 0.0054 -0.0073 0.0053 -0.0074 0.0053 -0.0074 0.0052 -0.0074 0.0052 -0.0075 0.0051 -0.0075 0.0051 -0.0075 0.005 -0.0075 0.005 -0.0076 0.005 -0.0076 0.0049 -0.0076 0.0049 -0.0077 0.0048 -0.0077 0.0048 -0.0077 0.0047 -0.0078 0.0047 -0.0078 0.0047 -0.0078 0.0046 -0.0078 0.0046 -0.0079 0.0045 -0.0079 0.0045 -0.0079 0.0044 -0.008 0.0044 -0.008 0.0043 -0.008 0.0043 -0.008 0.0042 -0.0081 0.0042 -0.0081 0.0041 -0.0081 0.0041 -0.0082 0.004 -0.0082 0.004 -0.0082 0.004 -0.0082 0.0039 -0.0083 0.0038 -0.0083 0.0038 -0.0084 0.0037 -0.0084 0.0037 -0.0084 0.0036 -0.0084 0.0036 -0.0085 0.0035 -0.0085 0.0035 -0.0085 0.0034 -0.0085 0.0034 -0.0085 0.0033 -0.0086 0.0033 -0.0086 0.0032 -0.0087 0.0032 -0.0087 0.0031 -0.0087 0.0031 -0.0087 0.0031 -0.0088 0.003 -0.0087 0.0029 -0.0088 0.0029 -0.0088 0.0029 -0.0089 0.0027 -0.0088 0.0027 -0.0089 0.0027 -0.0089 0.0026 -0.0089 0.0026 -0.0089 0.0025 -0.0089 0.0024 -0.009 0.0024 -0.009 0.0023 -0.009 0.0023 -0.009 0.0022 -0.0091 0.0022 -0.0091 0.0021 -0.0091 0.0021 -0.0091 0.002 -0.0091 0.002 -0.0092 0.0019 -0.0092 0.0019 -0.0092 0.0018 -0.0092 0.0018 -0.0092 0.0017 -0.0093 0.0016 -0.0093 0.0016 -0.0093 0.0015 -0.0093 0.0014 -0.0094 0.0014 -0.0094 0.0013 -0.0094 0.0013 -0.0094 0.0012 -0.0094 0.0012 -0.0095 0.0011 -0.0095 0.0011 -0.0095 0.001 -0.0095 0.0009 -0.0095 0.0009 -0.0096 0.0008 -0.0095 0.0008 -0.0096 0.0007 -0.0096 0.0007 -0.0096 0.0006 -0.0096 0.0005 -0.0097 0.0004 -0.0096 0.0004 -0.0097 0.0003 -0.0097 0.0003 -0.0097 0.0002 -0.0097 0.0001 -0.0097 0.0001 -0.0098 0 -0.0097 0 0zm-1.5058 -1.441l0 0 0.0093 0 0.0093 0.0001 0.0092 0.0002 0.0093 0.0002 0.0092 0.0002 0.0092 0.0003 0.0092 0.0004 0.0092 0.0004 0.0092 0.0005 0.0092 0.0005 0.0091 0.0006 0.0091 0.0007 0.0091 0.0007 0.0091 0.0008 0.0091 0.0008 0.0091 0.0009 0.009 0.0009 0.009 0.001 0.009 0.0011 0.009 0.0011 0.009 0.0012 0.009 0.0012 0.0089 0.0013 0.0089 0.0013 0.0089 0.0014 0.0089 0.0014 0.0089 0.0015 0.0089 0.0015 0.0088 0.0016 0.0088 0.0016 0.0088 0.0017 0.0088 0.0018 0.0088 0.0018 0.0088 0.0019 0.0087 0.0019 0.0087 0.002 0.0087 0.002 0.0087 0.0021 0.0087 0.0021 0.0086 0.0022 0.0086 0.0022 0.0086 0.0023 0.0086 0.0024 0.0086 0.0024 0.0085 0.0025 0.0085 0.0025 0.0085 0.0025 0.0085 0.0026 0.0084 0.0026 0.0084 0.0027 0.0084 0.0028 0.0084 0.0028 0.0084 0.0029 0.0083 0.0029 0.0083 0.003 0.0083 0.003 0.0082 0.003 0.0082 0.0031 0.0082 0.0032 0.0082 0.0032 0.0081 0.0032 0.0081 0.0033 0.0081 0.0033 0.0081 0.0034 0.008 0.0034 0.008 0.0035 0.008 0.0035 0.008 0.0036 0.0079 0.0036 0.0079 0.0037 0.0079 0.0037 0.0079 0.0038 0.0078 0.0038 0.0078 0.0038 0.0078 0.0039 0.0077 0.004 0.0078 0.004 0.0077 0.004 0.0077 0.0041 0.0077 0.0041 0.0076 0.0042 0.0076 0.0042 0.0076 0.0043 0.0075 0.0043 0.0075 0.0044 0.0075 0.0044 0.0074 0.0044 0.0075 0.0045 0.0074 0.0045 0.0074 0.0046 0.0073 0.0046 0.0073 0.0047 0.0073 0.0047 0.0073 0.0047 0.0072 0.0048 0.0072 0.0048 0.0071 0.0048 0.0071 0.0049 0.0071 0.0049 0.007 0.005 0.007 0.0051 0.007 0.0051 0.007 0.0051 0.0069 0.0052 0.0069 0.0052 0.0069 0.0053 0.0068 0.0053 0.0068 0.0053 0.0068 0.0054 0.0067 0.0054 0.0067 0.0055 0.0067 0.0055 0.0067 0.0055 0.0066 0.0056 0.0066 0.0056 0.0065 0.0056 0.0065 0.0057 0.0065 0.0057 0.0064 0.0057 0.0064 0.0058 0.0064 0.0058 0.0063 0.0059 0.0063 0.0059 0.0063 0.0059 0.0062 0.006 0.0062 0.006 0.0062 0.0061 0.0061 0.0061 0.0061 0.0061 0.006 0.0062 0.006 0.0062 0.006 0.0062 0.0059 0.0063 0.0059 0.0063 0.0059 0.0064 0.0058 0.0064 0.0058 0.0064 0.0057 0.0064 0.0057 0.0065 0.0057 0.0065 0.0056 0.0066 0.0056 0.0066 0.0056 0.0066 0.0055 0.0067 0.0055 0.0067 0.0054 0.0067 0.0054 0.0068 0.0054 0.0068 0.0053 0.0068 0.0053 0.0069 0.0052 0.0069 0.0052 0.0069 0.0052 0.0069 0.0051 0.007 0.0051 0.007 0.005 0.007 0.005 0.007 0.0049 0.0071 0.0049 0.0072 0.0049 0.0071 0.0048 0.0072 0.0048 0.0073 0.0047 0.0073 0.0047 0.0073 0.0046 0.0074 0.0046 0.0073 0.0046 0.0074 0.0045 0.0074 0.0045 0.0075 0.0044 0.0075 0.0044 0.0075 0.0044 0.0075 0.0043 0.0076 0.0043 0.0076 0.0042 0.0076 0.0042 0.0077 0.0041 0.0077 0.0041 0.0077 0.004 0.0077 0.004 0.0078 0.004 0.0077 0.0039 0.0078 0.0038 0.0078 0.0038 0.0079 0.0038 0.0079 0.0037 0.0079 0.0037 0.0079 0.0036 0.0079 0.0036 0.008 0.0035 0.008 0.0035 0.008 0.0034 0.0081 0.0034 0.0081 0.0033 0.0081 0.0033 0.0081 0.0032 0.0082 0.0032 0.0082 0.0031 0.0082 0.0031 0.0082 0.003 0.0082 0.003 0.0083 0.003 0.0083 0.0029 0.0083 0.0029 0.0084 0.0028 0.0084 0.0027 0.0084 0.0027 0.0084 0.0026 0.0085 0.0026 0.0085 0.0025 0.0085 0.0025 0.0085 0.0024 0.0086 0.0024 0.0086 0.0023 0.0086 0.0023 0.0086 0.0022 0.0086 0.0022 0.0087 0.0021 0.0087 0.0021 0.0087 0.002 0.0087 0.002 0.0087 0.002 0.0088 0.0019 0.0088 0.0018 0.0088 0.0018 0.0088 0.0017 0.0088 0.0016 0.0089 0.0016 0.0088 0.0015 0.0089 0.0015 0.0089 0.0015 0.0089 0.0014 0.0089 0.0013 0.0089 0.0013 0.009 0.0012 0.009 0.0012 0.009 0.0011 0.009 0.0011 0.009 0.001 0.0091 0.001 0.0091 0.0009 0.0091 0.0008 0.0091 0.0008 0.0091 0.0007 0.0091 0.0007 0.0091 0.0006 0.0092 0.0005 0.0092 0.0005 0.0092 0.0004 0.0092 0.0004 0.0092 0.0003 0.0092 0.0002 0.0093 0.0002 0.0093 0.0001 0.0093 0.0001 0.0093 0 0.0093 0.068 0 -0 -0.0098 -0.0001 -0.0098 -0.0001 -0.0097 -0.0002 -0.0097 -0.0003 -0.0097 -0.0003 -0.0097 -0.0004 -0.0097 -0.0004 -0.0097 -0.0005 -0.0096 -0.0006 -0.0096 -0.0007 -0.0096 -0.0007 -0.0096 -0.0008 -0.0096 -0.0008 -0.0096 -0.0009 -0.0096 -0.0009 -0.0095 -0.001 -0.0095 -0.0011 -0.0095 -0.0011 -0.0095 -0.0012 -0.0095 -0.0012 -0.0095 -0.0013 -0.0094 -0.0013 -0.0094 -0.0014 -0.0094 -0.0014 -0.0093 -0.0015 -0.0093 -0.0016 -0.0093 -0.0016 -0.0093 -0.0017 -0.0093 -0.0018 -0.0092 -0.0018 -0.0092 -0.0019 -0.0092 -0.0019 -0.0092 -0.002 -0.0092 -0.002 -0.0091 -0.0021 -0.0091 -0.0021 -0.0091 -0.0022 -0.0091 -0.0022 -0.0091 -0.0023 -0.0091 -0.0023 -0.009 -0.0024 -0.009 -0.0024 -0.009 -0.0025 -0.009 -0.0026 -0.0089 -0.0026 -0.0089 -0.0027 -0.0089 -0.0027 -0.0089 -0.0027 -0.0088 -0.0029 -0.0088 -0.0029 -0.0088 -0.0029 -0.0088 -0.003 -0.0088 -0.0031 -0.0087 -0.0031 -0.0087 -0.0031 -0.0087 -0.0032 -0.0087 -0.0032 -0.0086 -0.0033 -0.0086 -0.0033 -0.0086 -0.0034 -0.0086 -0.0034 -0.0085 -0.0035 -0.0085 -0.0035 -0.0085 -0.0036 -0.0085 -0.0036 -0.0084 -0.0037 -0.0084 -0.0037 -0.0084 -0.0038 -0.0084 -0.0038 -0.0083 -0.0039 -0.0083 -0.004 -0.0082 -0.004 -0.0082 -0.004 -0.0082 -0.0041 -0.0082 -0.0042 -0.0081 -0.0042 -0.0081 -0.0042 -0.0081 -0.0043 -0.0081 -0.0043 -0.008 -0.0044 -0.008 -0.0044 -0.008 -0.0045 -0.008 -0.0045 -0.0079 -0.0046 -0.0079 -0.0046 -0.0079 -0.0047 -0.0078 -0.0047 -0.0078 -0.0047 -0.0078 -0.0048 -0.0077 -0.0048 -0.0077 -0.0049 -0.0077 -0.0049 -0.0076 -0.005 -0.0076 -0.005 -0.0076 -0.005 -0.0076 -0.0051 -0.0075 -0.0051 -0.0074 -0.0052 -0.0075 -0.0052 -0.0074 -0.0053 -0.0074 -0.0053 -0.0074 -0.0054 -0.0073 -0.0054 -0.0073 -0.0054 -0.0073 -0.0055 -0.0072 -0.0055 -0.0071 -0.0055 -0.0071 -0.0056 -0.0071 -0.0056 -0.0071 -0.0057 -0.007 -0.0057 -0.007 -0.0058 -0.0069 -0.0058 -0.0069 -0.0059 -0.0069 -0.0059 -0.0068 -0.0059 -0.0068 -0.006 -0.0068 -0.006 -0.0068 -0.006 -0.0067 -0.0061 -0.0067 -0.0062 -0.0066 -0.0062 -0.0066 -0.0062 -0.0066 -0.0063 -0.0065 -0.0063 -0.0065 -0.0064 -0.0065 -0.0063 -0.0064 -0.0064 -0.0064 -0.0065 -0.0064 -0.0065 -0.0063 -0.0065 -0.0063 -0.0066 -0.0062 -0.0066 -0.0062 -0.0066 -0.0062 -0.0067 -0.0061 -0.0067 -0.006 -0.0068 -0.006 -0.0068 -0.006 -0.0068 -0.0059 -0.0068 -0.0059 -0.0069 -0.0059 -0.0069 -0.0058 -0.007 -0.0058 -0.007 -0.0057 -0.007 -0.0057 -0.007 -0.0056 -0.0071 -0.0056 -0.0071 -0.0056 -0.0071 -0.0055 -0.0072 -0.0055 -0.0072 -0.0055 -0.0073 -0.0054 -0.0073 -0.0054 -0.0074 -0.0054 -0.0074 -0.0053 -0.0074 -0.0052 -0.0074 -0.0052 -0.0075 -0.0052 -0.0075 -0.0051 -0.0075 -0.0051 -0.0076 -0.005 -0.0076 -0.005 -0.0076 -0.0049 -0.0077 -0.0049 -0.0077 -0.0048 -0.0077 -0.0048 -0.0078 -0.0047 -0.0078 -0.0047 -0.0078 -0.0046 -0.0078 -0.0046 -0.0079 -0.0046 -0.0079 -0.0045 -0.0079 -0.0045 -0.008 -0.0044 -0.008 -0.0044 -0.008 -0.0043 -0.008 -0.0043 -0.0081 -0.0042 -0.0081 -0.0042 -0.0081 -0.0042 -0.0082 -0.0041 -0.0082 -0.0041 -0.0082 -0.004 -0.0082 -0.004 -0.0083 -0.0039 -0.0083 -0.0038 -0.0083 -0.0038 -0.0084 -0.0037 -0.0084 -0.0037 -0.0084 -0.0036 -0.0085 -0.0036 -0.0085 -0.0036 -0.0085 -0.0035 -0.0085 -0.0034 -0.0085 -0.0034 -0.0086 -0.0034 -0.0086 -0.0033 -0.0087 -0.0033 -0.0086 -0.0032 -0.0086 -0.0032 -0.0087 -0.0031 -0.0087 -0.0031 -0.0087 -0.003 -0.0088 -0.0029 -0.0088 -0.0029 -0.0088 -0.0029 -0.0088 -0.0028 -0.0089 -0.0027 -0.0089 -0.0027 -0.0089 -0.0026 -0.0089 -0.0025 -0.0089 -0.0025 -0.009 -0.0024 -0.009 -0.0024 -0.009 -0.0024 -0.009 -0.0023 -0.009 -0.0022 -0.0091 -0.0022 -0.0091 -0.0021 -0.0091 -0.0021 -0.0091 -0.002 -0.0092 -0.002 -0.0091 -0.0019 -0.0092 -0.0019 -0.0092 -0.0018 -0.0092 -0.0018 -0.0093 -0.0017 -0.0093 -0.0016 -0.0093 -0.0016 -0.0093 -0.0015 -0.0093 -0.0014 -0.0093 -0.0014 -0.0094 -0.0013 -0.0094 -0.0013 -0.0094 -0.0012 -0.0094 -0.0012 -0.0095 -0.0011 -0.0095 -0.001 -0.0095 -0.001 -0.0095 -0.001 -0.0095 -0.0009 -0.0096 -0.0008 -0.0096 -0.0008 -0.0096 -0.0007 -0.0096 -0.0007 -0.0096 -0.0006 -0.0096 -0.0005 -0.0096 -0.0005 -0.0097 -0.0004 -0.0097 -0.0003 -0.0097 -0.0003 -0.0097 -0.0002 -0.0097 -0.0002 -0.0098 -0.0001 -0.0097 -0 0 0zm-1.4378 1.5092l0 -0.0093 0.0001 -0.0093 0.0001 -0.0093 0.0002 -0.0093 0.0003 -0.0093 0.0003 -0.0092 0.0004 -0.0092 0.0004 -0.0092 0.0005 -0.0092 0.0005 -0.0092 0.0006 -0.0092 0.0007 -0.0091 0.0007 -0.0091 0.0008 -0.0091 0.0008 -0.0091 0.0009 -0.0091 0.001 -0.0091 0.001 -0.0091 0.0011 -0.009 0.0011 -0.009 0.0012 -0.009 0.0012 -0.009 0.0013 -0.009 0.0013 -0.0089 0.0014 -0.0089 0.0014 -0.0089 0.0015 -0.0089 0.0016 -0.0089 0.0016 -0.0088 0.0017 -0.0089 0.0017 -0.0088 0.0018 -0.0088 0.0018 -0.0088 0.0019 -0.0088 0.0019 -0.0088 0.002 -0.0087 0.002 -0.0087 0.0021 -0.0087 0.0021 -0.0087 0.0022 -0.0087 0.0022 -0.0086 0.0023 -0.0086 0.0023 -0.0086 0.0024 -0.0086 0.0024 -0.0086 0.0025 -0.0085 0.0025 -0.0085 0.0026 -0.0085 0.0026 -0.0085 0.0027 -0.0084 0.0028 -0.0084 0.0028 -0.0084 0.0029 -0.0084 0.0029 -0.0083 0.003 -0.0083 0.003 -0.0083 0.0031 -0.0082 0.0031 -0.0082 0.0032 -0.0082 0.0032 -0.0082 0.0033 -0.0082 0.0033 -0.0081 0.0033 -0.0081 0.0034 -0.0081 0.0034 -0.0081 0.0035 -0.008 0.0035 -0.008 0.0036 -0.008 0.0036 -0.0079 0.0037 -0.0079 0.0037 -0.0079 0.0038 -0.0079 0.0038 -0.0079 0.0039 -0.0078 0.0039 -0.0078 0.004 -0.0077 0.004 -0.0078 0.004 -0.0077 0.0041 -0.0077 0.0041 -0.0077 0.0042 -0.0077 0.0042 -0.0076 0.0043 -0.0076 0.0043 -0.0076 0.0043 -0.0075 0.0044 -0.0075 0.0044 -0.0075 0.0045 -0.0075 0.0045 -0.0074 0.0046 -0.0074 0.0046 -0.0073 0.0047 -0.0074 0.0047 -0.0073 0.0047 -0.0073 0.0048 -0.0073 0.0048 -0.0072 0.0048 -0.0071 0.0049 -0.0072 0.0049 -0.0071 0.005 -0.007 0.0051 -0.007 0.0051 -0.007 0.0051 -0.007 0.0052 -0.0069 0.0052 -0.0069 0.0053 -0.0069 0.0053 -0.0069 0.0053 -0.0068 0.0053 -0.0068 0.0054 -0.0068 0.0054 -0.0067 0.0055 -0.0067 0.0055 -0.0067 0.0055 -0.0066 0.0056 -0.0066 0.0056 -0.0066 0.0057 -0.0065 0.0057 -0.0065 0.0057 -0.0064 0.0058 -0.0064 0.0058 -0.0064 0.0059 -0.0064 0.0059 -0.0063 0.0059 -0.0063 0.006 -0.0062 0.006 -0.0062 0.006 -0.0062 0.0061 -0.0061 0.0062 -0.0061 0.0061 -0.0061 0.0062 -0.006 0.0062 -0.006 0.0063 -0.0059 0.0063 -0.0059 0.0063 -0.0059 0.0064 -0.0058 0.0064 -0.0058 0.0064 -0.0057 0.0065 -0.0057 0.0065 -0.0057 0.0065 -0.0056 0.0066 -0.0056 0.0066 -0.0056 0.0066 -0.0055 0.0067 -0.0055 0.0067 -0.0055 0.0068 -0.0054 0.0068 -0.0054 0.0068 -0.0053 0.0068 -0.0053 0.0069 -0.0053 0.0069 -0.0052 0.0069 -0.0052 0.007 -0.0051 0.007 -0.0051 0.007 -0.0051 0.0071 -0.005 0.0071 -0.0049 0.0071 -0.0049 0.0071 -0.0048 0.0072 -0.0048 0.0072 -0.0048 0.0072 -0.0047 0.0073 -0.0047 0.0073 -0.0047 0.0073 -0.0046 0.0074 -0.0046 0.0074 -0.0045 0.0074 -0.0045 0.0075 -0.0044 0.0075 -0.0044 0.0075 -0.0044 0.0075 -0.0043 0.0076 -0.0043 0.0076 -0.0042 0.0076 -0.0042 0.0076 -0.0041 0.0077 -0.0041 0.0077 -0.004 0.0078 -0.004 0.0077 -0.004 0.0078 -0.0039 0.0078 -0.0038 0.0078 -0.0038 0.0079 -0.0038 0.0079 -0.0037 0.0079 -0.0037 0.0079 -0.0036 0.008 -0.0036 0.008 -0.0035 0.008 -0.0035 0.008 -0.0034 0.0081 -0.0034 0.0081 -0.0033 0.0081 -0.0033 0.0082 -0.0032 0.0081 -0.0032 0.0082 -0.0032 0.0082 -0.0031 0.0082 -0.003 0.0083 -0.003 0.0083 -0.003 0.0083 -0.0029 0.0084 -0.0029 0.0084 -0.0028 0.0084 -0.0028 0.0084 -0.0027 0.0084 -0.0026 0.0085 -0.0026 0.0084 -0.0025 0.0085 -0.0025 0.0085 -0.0025 0.0085 -0.0024 0.0086 -0.0024 0.0086 -0.0023 0.0086 -0.0022 0.0086 -0.0022 0.0086 -0.0021 0.0087 -0.0021 0.0087 -0.002 0.0087 -0.002 0.0087 -0.0019 0.0088 -0.0019 0.0088 -0.0018 0.0088 -0.0018 0.0088 -0.0017 0.0088 -0.0016 0.0088 -0.0016 0.0088 -0.0015 0.0089 -0.0015 0.0089 -0.0014 0.0089 -0.0014 0.0089 -0.0013 0.0089 -0.0013 0.009 -0.0012 0.009 -0.0012 0.009 -0.0011 0.009 -0.0011 0.009 -0.001 0.0091 -0.0009 0.0091 -0.0009 0.0091 -0.0008 0.0091 -0.0008 0.0091 -0.0007 0.0091 -0.0007 0.0091 -0.0006 0.0092 -0.0005 0.0092 -0.0005 0.0092 -0.0004 0.0092 -0.0004 0.0092 -0.0003 0.0093 -0.0002 0.0092 -0.0002 0.0093 -0.0002 0.0093 -0.0001 0.0093 -0 0 -0.0681 -0.0097 0 -0.0097 0.0001 -0.0097 0.0002 -0.0097 0.0002 -0.0097 0.0003 -0.0097 0.0003 -0.0097 0.0004 -0.0096 0.0005 -0.0096 0.0005 -0.0096 0.0006 -0.0096 0.0007 -0.0096 0.0007 -0.0096 0.0008 -0.0095 0.0008 -0.0095 0.0009 -0.0095 0.001 -0.0095 0.001 -0.0095 0.001 -0.0095 0.0011 -0.0095 0.0012 -0.0094 0.0012 -0.0094 0.0013 -0.0094 0.0013 -0.0094 0.0014 -0.0093 0.0014 -0.0093 0.0015 -0.0093 0.0016 -0.0093 0.0016 -0.0093 0.0017 -0.0092 0.0018 -0.0092 0.0018 -0.0092 0.0019 -0.0092 0.0019 -0.0092 0.002 -0.0091 0.002 -0.0091 0.0021 -0.0091 0.0021 -0.0091 0.0022 -0.009 0.0022 -0.009 0.0023 -0.009 0.0024 -0.009 0.0024 -0.0089 0.0024 -0.009 0.0025 -0.0089 0.0025 -0.0089 0.0026 -0.0089 0.0027 -0.0088 0.0027 -0.0088 0.0028 -0.0088 0.0029 -0.0088 0.0029 -0.0087 0.0029 -0.0088 0.003 -0.0087 0.0031 -0.0087 0.0031 -0.0087 0.0032 -0.0086 0.0032 -0.0086 0.0033 -0.0086 0.0033 -0.0086 0.0034 -0.0085 0.0034 -0.0085 0.0034 -0.0085 0.0035 -0.0085 0.0036 -0.0084 0.0036 -0.0084 0.0036 -0.0084 0.0037 -0.0084 0.0037 -0.0083 0.0038 -0.0083 0.0038 -0.0082 0.0039 -0.0082 0.004 -0.0082 0.004 -0.0082 0.0041 -0.0082 0.0041 -0.0081 0.0042 -0.0081 0.0042 -0.0081 0.0042 -0.008 0.0043 -0.008 0.0043 -0.008 0.0044 -0.0079 0.0044 -0.0079 0.0045 -0.0079 0.0045 -0.0078 0.0046 -0.0079 0.0046 -0.0078 0.0046 -0.0078 0.0047 -0.0077 0.0047 -0.0077 0.0048 -0.0077 0.0048 -0.0076 0.0049 -0.0076 0.0049 -0.0076 0.005 -0.0075 0.005 -0.0075 0.0051 -0.0075 0.0051 -0.0074 0.0052 -0.0075 0.0052 -0.0074 0.0052 -0.0074 0.0053 -0.0073 0.0054 -0.0073 0.0054 -0.0073 0.0054 -0.0072 0.0055 -0.0072 0.0055 -0.0071 0.0055 -0.0071 0.0056 -0.0071 0.0056 -0.007 0.0056 -0.007 0.0057 -0.007 0.0057 -0.0069 0.0058 -0.0069 0.0058 -0.0069 0.0059 -0.0069 0.0059 -0.0068 0.0059 -0.0068 0.006 -0.0067 0.006 -0.0067 0.006 -0.0067 0.0061 -0.0066 0.0062 -0.0066 0.0062 -0.0066 0.0062 -0.0065 0.0063 -0.0065 0.0063 -0.0064 0.0064 -0.0064 0.0064 -0.0064 0.0064 -0.0063 0.0065 -0.0063 0.0065 -0.0062 0.0065 -0.0062 0.0066 -0.0062 0.0066 -0.0061 0.0066 -0.0061 0.0067 -0.006 0.0067 -0.006 0.0068 -0.006 0.0068 -0.0059 0.0068 -0.0059 0.0068 -0.0058 0.0069 -0.0058 0.0069 -0.0058 0.0069 -0.0057 0.007 -0.0057 0.007 -0.0056 0.0071 -0.0056 0.0071 -0.0056 0.0071 -0.0055 0.0071 -0.0055 0.0072 -0.0054 0.0073 -0.0054 0.0073 -0.0054 0.0073 -0.0053 0.0074 -0.0052 0.0074 -0.0052 0.0074 -0.0052 0.0075 -0.0052 0.0074 -0.0051 0.0075 -0.0051 0.0076 -0.005 0.0076 -0.0049 0.0076 -0.0049 0.0076 -0.0049 0.0077 -0.0048 0.0077 -0.0048 0.0077 -0.0047 0.0078 -0.0047 0.0078 -0.0046 0.0078 -0.0046 0.0079 -0.0046 0.0079 -0.0045 0.0079 -0.0045 0.008 -0.0044 0.008 -0.0044 0.008 -0.0043 0.008 -0.0043 0.0081 -0.0043 0.0081 -0.0042 0.0081 -0.0041 0.0081 -0.0041 0.0082 -0.0041 0.0082 -0.004 0.0082 -0.004 0.0082 -0.0039 0.0083 -0.0038 0.0083 -0.0038 0.0084 -0.0037 0.0084 -0.0037 0.0084 -0.0037 0.0084 -0.0036 0.0085 -0.0035 0.0085 -0.0035 0.0085 -0.0034 0.0085 -0.0034 0.0086 -0.0034 0.0086 -0.0033 0.0086 -0.0033 0.0086 -0.0032 0.0087 -0.0031 0.0087 -0.0031 0.0087 -0.0031 0.0087 -0.003 0.0088 -0.003 0.0088 -0.0029 0.0088 -0.0029 0.0088 -0.0028 0.0088 -0.0027 0.0089 -0.0027 0.0089 -0.0026 0.0089 -0.0025 0.0089 -0.0025 0.009 -0.0025 0.009 -0.0024 0.009 -0.0023 0.009 -0.0023 0.0091 -0.0022 0.0091 -0.0022 0.0091 -0.0022 0.0091 -0.0021 0.0091 -0.002 0.0091 -0.002 0.0092 -0.0019 0.0092 -0.0019 0.0092 -0.0018 0.0092 -0.0018 0.0092 -0.0017 0.0093 -0.0016 0.0093 -0.0015 0.0093 -0.0015 0.0093 -0.0015 0.0093 -0.0014 0.0094 -0.0013 0.0094 -0.0013 0.0094 -0.0012 0.0095 -0.0011 0.0095 -0.0011 0.0095 -0.001 0.0095 -0.001 0.0095 -0.0009 0.0095 -0.0009 0.0096 -0.0008 0.0096 -0.0008 0.0096 -0.0007 0.0096 -0.0006 0.0096 -0.0006 0.0096 -0.0005 0.0096 -0.0005 0.0097 -0.0004 0.0097 -0.0003 0.0097 -0.0003 0.0097 -0.0002 0.0097 -0.0002 0.0097 -0.0001 0.0098 -0 0.0098z"/>
   </g>
  </g>
  <g id="_2455427548400">
   <g id="ARROW_48" data-name="ARROW 48">
    <path class="fil2" d="M2.0366 1.9453c-0.038,0 -0.0688,0.0308 -0.0688,0.0688l0 0.1677c-0,0.0537 -0.0435,0.0972 -0.0972,0.0972l-0.4812 0c-0.0537,-0.0001 -0.0972,-0.0436 -0.0972,-0.0972l0 -0.9979c0,-0.0537 0.0435,-0.0972 0.0972,-0.0972l0.4812 0c0.0537,0.0001 0.0972,0.0436 0.0972,0.0972l0 0.145c0,0.038 0.0308,0.0688 0.0688,0.0688 0.038,0 0.0688,-0.0308 0.0688,-0.0688l0 -0.145c-0.0001,-0.1297 -0.1052,-0.2348 -0.2349,-0.2349l-0.4812 0c-0.1297,0.0002 -0.2348,0.1053 -0.2349,0.2349l0 0.9979c0.0002,0.1297 0.1052,0.2348 0.2349,0.2349l0.4812 0c0.1297,-0.0002 0.2348,-0.1053 0.2349,-0.2349l0 -0.1677c0,-0.038 -0.0308,-0.0688 -0.0688,-0.0688l0 0z"/>
    <path class="fil2" d="M2.6019 1.6328l-0.245 -0.2448c-0.0129,-0.0129 -0.0304,-0.0202 -0.0487,-0.0202 -0.0178,0 -0.0349,0.0069 -0.0477,0.0192 -0.0278,0.0268 -0.0272,0.0721 0.0001,0.0994l0.1276 0.1277 -0.5967 0c-0.038,0 -0.0688,0.0308 -0.0688,0.0688 0,0.038 0.0308,0.0688 0.0688,0.0688l0.5967 0 -0.1288 0.1288c-0.0129,0.0129 -0.0202,0.0305 -0.0202,0.0487 0,0.038 0.0308,0.0688 0.0689,0.0688 0.0183,0 0.0357,-0.0073 0.0487,-0.0201l0.2451 -0.245c0.0133,-0.0133 0.0208,-0.0313 0.0208,-0.0501 0,-0.0188 -0.0075,-0.0368 -0.0208,-0.0501l0 0z"/>
   </g>
  </g>
 </g>
</svg>
