<?xml version="1.0" encoding="UTF-8"?>
<!DOCTYPE svg PUBLIC "-//W3C//DTD SVG 1.1//EN" "http://www.w3.org/Graphics/SVG/1.1/DTD/svg11.dtd">
<!-- Creator: CorelDRAW 2019 (64-Bit) -->
<svg xmlns="http://www.w3.org/2000/svg" xml:space="preserve" width="9.2204mm" height="9.2067mm" version="1.1" style="shape-rendering:geometricPrecision; text-rendering:geometricPrecision; image-rendering:optimizeQuality; fill-rule:evenodd; clip-rule:evenodd"
viewBox="0 0 0.8912 0.8899"
 xmlns:xlink="http://www.w3.org/1999/xlink">
 <defs>
  <style type="text/css">
   <![CDATA[
    .fil2 {fill:#2B2A29}
    .fil0 {fill:url(#id2);fill-rule:nonzero}
    .fil1 {fill:url(#id3);fill-rule:nonzero}
   ]]>
  </style>
   <mask id="id0">
  <linearGradient id="id1" gradientUnits="userSpaceOnUse" x1="0.7691" y1="0.026" x2="1.0164" y2="0.8529">
   <stop offset="0" style="stop-opacity:1; stop-color:white"/>
   <stop offset="1" style="stop-opacity:0; stop-color:white"/>
  </linearGradient>
    <rect style="fill:url(#id1)" width="0.8912" height="0.8899"/>
   </mask>
  <radialGradient id="id2" gradientUnits="userSpaceOnUse" gradientTransform="matrix(0.813067 -2.92692 3.21582 0.0913636 1 2)" cx="0.7486" cy="-0.3471" r="0.4456" fx="0.7486" fy="-0.3471">
   <stop offset="0" style="stop-opacity:1; stop-color:#FEFEFE"/>
   <stop offset="0.180392" style="stop-opacity:1; stop-color:#FEFEFE"/>
   <stop offset="0.65098" style="stop-opacity:1; stop-color:#D0DEEA"/>
   <stop offset="1" style="stop-opacity:1; stop-color:#5A5655"/>
  </radialGradient>
  <linearGradient id="id3" gradientUnits="objectBoundingBox" x1="50.0002%" y1="99.9994%" x2="50.0002%" y2="0%">
   <stop offset="0" style="stop-opacity:1; stop-color:#FEFEFE"/>
   <stop offset="1" style="stop-opacity:1; stop-color:#DFE3F3"/>
  </linearGradient>
 </defs>
 <g id="Layer_x0020_1">
  <metadata id="CorelCorpID_0Corel-Layer"/>
  <path class="fil0" style="mask:url(#id0)" d="M0.2628 0.0396c-0.2244,0.1012 -0.3244,0.3647 -0.2234,0.5886 0.101,0.2239 0.3647,0.3233 0.5891,0.2221 0.2244,-0.1012 0.3244,-0.3647 0.2234,-0.5886 -0.101,-0.2239 -0.3647,-0.3233 -0.5891,-0.2221z"/>
  <path class="fil1" d="M0.0317 0.445c0,0.2291 0.1853,0.4148 0.4139,0.4148 0.2286,0 0.4139,-0.1857 0.4139,-0.4148 0,-0.2291 -0.1853,-0.4148 -0.4139,-0.4148 -0.2286,0 -0.4139,0.1857 -0.4139,0.4148z"/>
  <path class="fil1" d="M0.0317 0.445c0,0.2291 0.1853,0.4148 0.4139,0.4148 0.2286,0 0.4139,-0.1857 0.4139,-0.4148 0,-0.2291 -0.1853,-0.4148 -0.4139,-0.4148 -0.2286,0 -0.4139,0.1857 -0.4139,0.4148z"/>
  <g id="_1684337035184">
   <path class="fil2" d="M0.254 0.6066c-0.0083,0 -0.0162,0.0021 -0.0233,0.0059 -0.0372,-0.0477 -0.0576,-0.1069 -0.0576,-0.1676 0,-0.1503 0.1223,-0.2726 0.2726,-0.2726 0.0183,0 0.0365,0.0018 0.0543,0.0054 0.0062,0.0013 0.0123,-0.0028 0.0136,-0.009 0.0013,-0.0062 -0.0028,-0.0123 -0.009,-0.0136 -0.0193,-0.0039 -0.0391,-0.0059 -0.0589,-0.0059 -0.079,0 -0.1532,0.0308 -0.2091,0.0866 -0.0558,0.0558 -0.0866,0.1301 -0.0866,0.2091 0,0.0664 0.0226,0.1313 0.0636,0.1832 -0.0053,0.0079 -0.0081,0.0172 -0.0081,0.0269 0,0.013 0.0051,0.0251 0.0142,0.0343 0.0092,0.0092 0.0213,0.0142 0.0343,0.0142 0.013,0 0.0251,-0.005 0.0343,-0.0142 0.0092,-0.0092 0.0142,-0.0213 0.0142,-0.0343 0,-0.013 -0.005,-0.0251 -0.0142,-0.0343 -0.0092,-0.0092 -0.0213,-0.0142 -0.0343,-0.0142l0 0zm0.018 0.0665c-0.0048,0.0048 -0.0112,0.0074 -0.018,0.0074 -0.0068,0 -0.0132,-0.0026 -0.018,-0.0074 -0.0048,-0.0048 -0.0074,-0.0112 -0.0074,-0.018 0,-0.0068 0.0026,-0.0132 0.0074,-0.018 0.0048,-0.0048 0.0112,-0.0074 0.018,-0.0074 0.0068,0 0.0132,0.0026 0.018,0.0074 0.0048,0.0048 0.0074,0.0112 0.0074,0.018 0,0.0068 -0.0026,0.0132 -0.0074,0.018zm0 0z"/>
   <path class="fil2" d="M0.6777 0.2617c0.0126,-0.0188 0.0105,-0.0446 -0.0061,-0.0612 -0.0092,-0.0092 -0.0213,-0.0142 -0.0343,-0.0142 -0.013,0 -0.0251,0.005 -0.0343,0.0142 -0.0092,0.0092 -0.0142,0.0213 -0.0142,0.0343 0,0.013 0.005,0.0251 0.0142,0.0343 0.0092,0.0092 0.0213,0.0142 0.0343,0.0142 0.0083,0 0.0162,-0.0021 0.0233,-0.0059 0.0372,0.0477 0.0576,0.1069 0.0576,0.1676 0,0.1503 -0.1223,0.2726 -0.2726,0.2726 -0.0181,0 -0.0362,-0.0018 -0.0538,-0.0053 -0.0063,-0.0012 -0.0123,0.0028 -0.0136,0.0091 -0.0013,0.0063 0.0028,0.0123 0.0091,0.0136 0.0191,0.0038 0.0387,0.0058 0.0583,0.0058 0.079,0 0.1532,-0.0308 0.2091,-0.0866 0.0558,-0.0558 0.0866,-0.1301 0.0866,-0.2091 0,-0.0664 -0.0226,-0.1313 -0.0636,-0.1832l0 0zm-0.0583 -0.0089c-0.0048,-0.0048 -0.0074,-0.0112 -0.0074,-0.018 0,-0.0068 0.0026,-0.0132 0.0074,-0.018 0.0048,-0.0048 0.0112,-0.0074 0.018,-0.0074 0.0068,0 0.0132,0.0026 0.018,0.0074 0.0099,0.0099 0.0099,0.026 0,0.0359 -0.0048,0.0048 -0.0112,0.0074 -0.018,0.0074 -0.0068,0 -0.0132,-0.0026 -0.018,-0.0074l0 0zm0 0z"/>
   <path class="fil2" d="M0.398 0.6436c0,0.0064 0.0052,0.0116 0.0116,0.0116l0.0722 0c0.0064,0 0.0116,-0.0052 0.0116,-0.0116l0 -0.0224c0.0152,-0.0041 0.0297,-0.0101 0.0434,-0.018l0.0158 0.0158c0.0022,0.0022 0.0051,0.0034 0.0082,0.0034 0.0031,0 0.006,-0.0012 0.0082,-0.0034l0.051 -0.0511c0.0045,-0.0045 0.0045,-0.0118 0,-0.0163l-0.0158 -0.0158c0.0079,-0.0136 0.0139,-0.0282 0.018,-0.0434l0.0223 0c0.0064,0 0.0116,-0.0052 0.0116,-0.0115l0 -0.0722c0,-0.0064 -0.0052,-0.0115 -0.0116,-0.0115l-0.0223 0c-0.0041,-0.0152 -0.0101,-0.0297 -0.018,-0.0433l0.0157 -0.0157c0.0022,-0.0022 0.0034,-0.0051 0.0034,-0.0082 -0,-0.0031 -0.0012,-0.006 -0.0034,-0.0082l-0.0511 -0.051c-0.0045,-0.0045 -0.0118,-0.0045 -0.0163,0l-0.0157 0.0157c-0.0136,-0.0079 -0.0282,-0.0139 -0.0434,-0.018l0 -0.0222c0,-0.0064 -0.0052,-0.0116 -0.0116,-0.0116l-0.0722 0c-0.0064,0 -0.0116,0.0052 -0.0116,0.0116l0 0.0222c-0.0152,0.0041 -0.0297,0.0101 -0.0433,0.018l-0.0157 -0.0157c-0.0045,-0.0045 -0.0118,-0.0045 -0.0163,0l-0.0511 0.051c-0.0022,0.0022 -0.0034,0.0051 -0.0034,0.0082 0,0.0031 0.0012,0.006 0.0034,0.0082l0.0157 0.0157c-0.0079,0.0136 -0.0139,0.0282 -0.018,0.0433l-0.0223 0c-0.0064,0 -0.0116,0.0052 -0.0116,0.0115l-0 0.0722c-0,0.0031 0.0012,0.006 0.0034,0.0082 0.0022,0.0022 0.0051,0.0034 0.0082,0.0034l0.0223 0c0.0041,0.0152 0.0101,0.0297 0.018,0.0434l-0.0158 0.0158c-0.0045,0.0045 -0.0045,0.0118 0,0.0163l0.051 0.0511c0.0022,0.0022 0.0051,0.0034 0.0082,0.0034l0 0c0.0031,0 0.006,-0.0012 0.0082,-0.0034l0.0158 -0.0158c0.0136,0.0079 0.0282,0.0139 0.0433,0.018l0 0.0224zm-0.0388 -0.0646c-0.0046,-0.0029 -0.0106,-0.0023 -0.0144,0.0015l-0.0141 0.0141 -0.0347 -0.0347 0.014 -0.0141c0.0038,-0.0038 0.0045,-0.0099 0.0015,-0.0144 -0.0105,-0.0162 -0.0178,-0.034 -0.0219,-0.0528 -0.0012,-0.0053 -0.0058,-0.0091 -0.0113,-0.0091l-0.0198 0 0 -0.0491 0.0198 0c0.0055,0 0.0101,-0.0038 0.0113,-0.0091 0.004,-0.0188 0.0114,-0.0366 0.0219,-0.0528 0.0029,-0.0046 0.0023,-0.0106 -0.0015,-0.0144l-0.014 -0.014 0.0347 -0.0347 0.0139 0.0139c0.0039,0.0038 0.0099,0.0045 0.0144,0.0015 0.0162,-0.0105 0.034,-0.0178 0.0528,-0.0219 0.0053,-0.0011 0.0091,-0.0058 0.0091,-0.0113l0 -0.0197 0.0491 -0 0 0.0197c0,0.0054 0.0038,0.0101 0.0091,0.0113 0.0188,0.004 0.0366,0.0114 0.0528,0.0219 0.0046,0.003 0.0106,0.0023 0.0144,-0.0015l0.0139 -0.0139 0.0347 0.0347 -0.014 0.014c-0.0038,0.0039 -0.0045,0.0099 -0.0015,0.0144 0.0105,0.0162 0.0178,0.034 0.0219,0.0528 0.0011,0.0053 0.0058,0.0091 0.0113,0.0091l0.0198 0 0 0.0491 -0.0198 0c-0.0054,0 -0.0101,0.0038 -0.0113,0.0091 -0.004,0.0188 -0.0114,0.0366 -0.0219,0.0528 -0.003,0.0046 -0.0023,0.0106 0.0015,0.0144l0.0141 0.014 -0.0347 0.0347 -0.0141 -0.0141c-0.0038,-0.0038 -0.0099,-0.0045 -0.0144,-0.0015 -0.0162,0.0105 -0.034,0.0178 -0.0528,0.0219 -0.0053,0.0011 -0.0091,0.0058 -0.0091,0.0113l0 0.0199 -0.0491 0 0 -0.0199c0,-0.0054 -0.0038,-0.0101 -0.0091,-0.0113 -0.0188,-0.0041 -0.0366,-0.0114 -0.0528,-0.0219zm0 0z"/>
   <path class="fil2" d="M0.5411 0.445c0,-0.0526 -0.0428,-0.0954 -0.0954,-0.0954 -0.0526,0 -0.0954,0.0428 -0.0954,0.0954 0,0.0526 0.0428,0.0954 0.0954,0.0954 0.0526,0 0.0954,-0.0428 0.0954,-0.0954zm-0.1678 0c0,-0.0399 0.0324,-0.0723 0.0723,-0.0723 0.0399,0 0.0723,0.0324 0.0723,0.0723 0,0.0399 -0.0324,0.0723 -0.0723,0.0723 -0.0399,0 -0.0723,-0.0324 -0.0723,-0.0723zm0 0z"/>
   <path class="fil2" d="M0.552 0.193c0.003,0 0.006,-0.0012 0.0082,-0.0034 0.0021,-0.0022 0.0034,-0.0051 0.0034,-0.0082 0,-0.003 -0.0012,-0.006 -0.0034,-0.0082 -0.0021,-0.0021 -0.0051,-0.0034 -0.0082,-0.0034 -0.0031,0 -0.006,0.0012 -0.0082,0.0034 -0.0022,0.0022 -0.0034,0.0051 -0.0034,0.0082 0,0.003 0.0012,0.006 0.0034,0.0082 0.0021,0.0021 0.0051,0.0034 0.0082,0.0034zm0 0z"/>
   <path class="fil2" d="M0.3398 0.6972c-0.003,0 -0.006,0.0012 -0.0082,0.0034 -0.0022,0.0021 -0.0034,0.0051 -0.0034,0.0082 0,0.0031 0.0012,0.006 0.0034,0.0082 0.0021,0.0021 0.0051,0.0034 0.0082,0.0034 0.003,0 0.006,-0.0012 0.0082,-0.0034 0.0021,-0.0021 0.0034,-0.0051 0.0034,-0.0082 0,-0.003 -0.0012,-0.006 -0.0034,-0.0082 -0.0021,-0.0022 -0.0051,-0.0034 -0.0082,-0.0034zm0 0z"/>
  </g>
 </g>
</svg>
