<?xml version="1.0" encoding="UTF-8"?>
<!DOCTYPE svg PUBLIC "-//W3C//DTD SVG 1.1//EN" "http://www.w3.org/Graphics/SVG/1.1/DTD/svg11.dtd">
<!-- Creator: CorelDRAW 2019 (64-Bit) -->
<svg xmlns="http://www.w3.org/2000/svg" xml:space="preserve" width="9.2204mm" height="9.2067mm" version="1.1" style="shape-rendering:geometricPrecision; text-rendering:geometricPrecision; image-rendering:optimizeQuality; fill-rule:evenodd; clip-rule:evenodd"
viewBox="0 0 1.3663 1.3643"
 xmlns:xlink="http://www.w3.org/1999/xlink">
 <defs>
  <style type="text/css">
   <![CDATA[
    .fil2 {fill:#2B2A29}
    .fil0 {fill:url(#id2);fill-rule:nonzero}
    .fil1 {fill:url(#id3);fill-rule:nonzero}
   ]]>
  </style>
    <mask id="id0">
  <linearGradient id="id1" gradientUnits="userSpaceOnUse" x1="1.1791" y1="0.0399" x2="1.5581" y2="1.3075">
   <stop offset="0" style="stop-opacity:1; stop-color:white"/>
   <stop offset="1" style="stop-opacity:0; stop-color:white"/>
  </linearGradient>
     <rect style="fill:url(#id1)" width="1.3663" height="1.3643"/>
    </mask>
  <radialGradient id="id2" gradientUnits="userSpaceOnUse" gradientTransform="matrix(0.813067 -2.92692 3.21582 0.0913636 2 3)" cx="1.1477" cy="-0.5321" r="0.6831" fx="1.1477" fy="-0.5321">
   <stop offset="0" style="stop-opacity:1; stop-color:#FEFEFE"/>
   <stop offset="0.180392" style="stop-opacity:1; stop-color:#FEFEFE"/>
   <stop offset="0.65098" style="stop-opacity:1; stop-color:#D0DEEA"/>
   <stop offset="1" style="stop-opacity:1; stop-color:#5A5655"/>
  </radialGradient>
  <linearGradient id="id3" gradientUnits="userSpaceOnUse" x1="0.6831" y1="1.3181" x2="0.6831" y2="0.0462">
   <stop offset="0" style="stop-opacity:1; stop-color:#FEFEFE"/>
   <stop offset="1" style="stop-opacity:1; stop-color:#DFE3F3"/>
  </linearGradient>
 </defs>
 <g id="Layer_x0020_1">
  <metadata id="CorelCorpID_0Corel-Layer"/>
  <g id="_1686649386672">
   <path class="fil0" style="mask:url(#id0)" d="M0.4028 0.0607c-0.344,0.1552 -0.4973,0.5591 -0.3425,0.9023 0.1548,0.3432 0.5591,0.4956 0.9031,0.3404 0.344,-0.1552 0.4973,-0.5591 0.3425,-0.9023 -0.1548,-0.3432 -0.5591,-0.4956 -0.9031,-0.3404z"/>
   <path class="fil1" d="M0.0486 0.6821c0,0.3512 0.2841,0.6359 0.6345,0.6359 0.3504,0 0.6345,-0.2847 0.6345,-0.6359 0,-0.3512 -0.2841,-0.6359 -0.6345,-0.6359 -0.3504,0 -0.6345,0.2847 -0.6345,0.6359z"/>
  </g>
  <g id="_1686649388528">
   <g>
    <g>
     <path class="fil2" d="M0.9853 0.4547l-0.0955 0c-0.0054,0 -0.0097,0.0043 -0.0097,0.0097 0,0.0054 0.0043,0.0097 0.0097,0.0097l0.0955 0c0.0053,0 0.0097,0.0044 0.0097,0.0097 0,0.0026 -0.001,0.005 -0.0029,0.0069 -0.0018,0.0018 -0.0043,0.0028 -0.0068,0.0028l-0.3933 0 0 -0.0194 0.2568 0c0.0053,0 0.0097,-0.0043 0.0097,-0.0097 0,-0.0053 -0.0043,-0.0097 -0.0097,-0.0097l-0.2568 0 0 -0.0162c0,-0.0125 -0.0102,-0.0226 -0.0226,-0.0226l-0.0906 0c-0.0125,0 -0.0226,0.0102 -0.0226,0.0226l0 0.0162 -0.0751 0c-0.0078,0 -0.0151,0.003 -0.0206,0.0085 -0.0055,0.0055 -0.0086,0.0128 -0.0086,0.0206 0,0.0161 0.0131,0.0291 0.0291,0.0291l0.0751 0 0 0.0162c0,0.0125 0.0102,0.0226 0.0226,0.0226l0.0906 0c0.0125,0 0.0226,-0.0102 0.0226,-0.0226l0 -0.0162 0.3933 0c0.0078,0 0.0151,-0.003 0.0206,-0.0085 0.0055,-0.0055 0.0086,-0.0128 0.0086,-0.0206 0,-0.016 -0.0131,-0.0291 -0.0291,-0.0291zm-0.5292 0.0388l-0.0751 0c-0.0053,0 -0.0097,-0.0044 -0.0097,-0.0097 0,-0.0026 0.001,-0.005 0.0029,-0.0069 0.0018,-0.0018 0.0043,-0.0028 0.0068,-0.0028l0.0751 0 0 0.0194zm0.1164 0.0356c0,0.0018 -0.0015,0.0032 -0.0032,0.0032l-0.0906 0c-0.0017,0 -0.0032,-0.0015 -0.0032,-0.0032l0 -0.0906c0,-0.0017 0.0015,-0.0032 0.0032,-0.0032l0.0906 0c0.0017,0 0.0032,0.0015 0.0032,0.0032l0 0.0906z"/>
    </g>
   </g>
   <g>
    <g>
     <path class="fil2" d="M0.9853 0.7316l-0.1459 0 0 -0.0414 0.0042 0c0.0125,0 0.0226,-0.0102 0.0226,-0.0226l0 -0.0162 0.119 0c0.0078,0 0.0151,-0.003 0.0206,-0.0085 0.0055,-0.0055 0.0086,-0.0128 0.0086,-0.0206 0,-0.016 -0.0131,-0.0291 -0.0291,-0.0291l-0.119 0 0 -0.0162c0,-0.0125 -0.0102,-0.0226 -0.0226,-0.0226l-0.0906 0c-0.0125,0 -0.0226,0.0102 -0.0226,0.0226l0 0.0162 -0.3494 0c-0.0078,0 -0.0151,0.003 -0.0206,0.0085 -0.0055,0.0055 -0.0086,0.0128 -0.0086,0.0206 0,0.016 0.0131,0.0291 0.0291,0.0291l0.0535 0c0.0054,0 0.0097,-0.0043 0.0097,-0.0097 0,-0.0054 -0.0043,-0.0097 -0.0097,-0.0097l-0.0535 0c-0.0053,0 -0.0097,-0.0044 -0.0097,-0.0097 0,-0.0026 0.001,-0.005 0.0029,-0.0069 0.0018,-0.0018 0.0043,-0.0028 0.0068,-0.0028l0.3494 0 0 0.0194 -0.2539 0c-0.0054,0 -0.0097,0.0043 -0.0097,0.0097 0,0.0054 0.0043,0.0097 0.0097,0.0097l0.2539 0 0 0.0162c0,0.0125 0.0102,0.0226 0.0226,0.0226l0.0116 0 -0.0002 0.0414 -0.1307 0 0 -0.0162c0,-0.0125 -0.0102,-0.0226 -0.0226,-0.0226l-0.0906 0c-0.0125,0 -0.0226,0.0102 -0.0226,0.0226l0 0.0162 -0.1168 0c-0.0078,0 -0.0151,0.003 -0.0206,0.0085 -0.0055,0.0055 -0.0086,0.0128 -0.0086,0.0206 0,0.016 0.0131,0.0291 0.0291,0.0291l0.1168 0 0 0.0162c0,0.0125 0.0102,0.0226 0.0226,0.0226l0.0906 0c0.0125,0 0.0226,-0.0102 0.0226,-0.0226l0 -0.0162 0.0816 0c-0.0036,0.006 -0.0056,0.013 -0.0056,0.0205l0 0.0253c0,0.0054 0.0043,0.0097 0.0097,0.0097 0.0054,0 0.0097,-0.0043 0.0097,-0.0097l0 -0.0253c0,-0.0108 0.0083,-0.0198 0.0188,-0.0205l0.0027 0c0.0042,0.0003 0.0075,0.0022 0.0102,0.0056 0.0033,0.0043 0.009,0.006 0.0142,0.0043 0.0052,-0.0017 0.0087,-0.0066 0.0087,-0.012l0 -0.0075c0,-0 0,-0 0,-0.0001 0,-0 -0,-0 -0,-0.0001l0.0004 -0.0995c0,-0 0,-0.0001 0,-0.0001 0,-0 0,-0.0001 0,-0.0001l0.0001 -0.0305c0,-0.0099 0.008,-0.0179 0.0179,-0.0179 0.0048,0 0.0093,0.0019 0.0126,0.0052 0.0034,0.0034 0.0052,0.0079 0.0052,0.0127l0 0.0885c0,0.0167 0.0136,0.0302 0.0302,0.0302l0.0566 0c0.0226,0 0.041,0.0184 0.041,0.041l0 0.1281c0,0.0062 -0.005,0.0112 -0.0112,0.0112l-0.0011 0 -0.1553 0 -0.0017 0c-0.0272,0 -0.0493,-0.0222 -0.0493,-0.0494l0 -0.0224c0,-0.0054 -0.0043,-0.0097 -0.0097,-0.0097 -0.0054,0 -0.0097,0.0043 -0.0097,0.0097l0 0.0224c0,0.0352 0.0266,0.0644 0.0608,0.0683l0 0.0246c0,0.0081 0.0066,0.0147 0.0147,0.0147l0.1454 0c0.0081,0 0.0147,-0.0066 0.0147,-0.0147l0 -0.0254c0.0127,-0.0037 0.022,-0.0155 0.022,-0.0294l0 -0.1281c0,-0.0069 -0.0012,-0.0136 -0.0033,-0.0198l0.0215 0c0.0078,0 0.0151,-0.003 0.0206,-0.0085 0.0055,-0.0055 0.0086,-0.0128 0.0086,-0.0206 0,-0.016 -0.0131,-0.0291 -0.0291,-0.0291zm-0.119 -0.119l0.119 0c0.0053,0 0.0097,0.0044 0.0097,0.0097 0,0.0026 -0.001,0.005 -0.0029,0.0069 -0.0018,0.0018 -0.0043,0.0028 -0.0068,0.0028l-0.119 0 0 -0.0194zm-0.3684 0.1579l-0.1168 0c-0.0053,0 -0.0097,-0.0044 -0.0097,-0.0097 0,-0.0026 0.001,-0.005 0.0029,-0.0069 0.0018,-0.0018 0.0043,-0.0028 0.0068,-0.0028l0.1168 0 0 0.0194zm0.1165 0.0356c0,0.0017 -0.0015,0.0032 -0.0032,0.0032l-0.0906 0c-0.0017,0 -0.0032,-0.0015 -0.0032,-0.0032l0 -0.0258c0,-0 0,-0.0001 0,-0.0001 0,-0 0,-0.0001 0,-0.0001l0 -0.0386c0,-0 0,-0.0001 0,-0.0001 0,-0 0,-0.0001 0,-0.0001l0 -0.0258c0,-0.0017 0.0015,-0.0032 0.0032,-0.0032l0.0906 0c0.0018,0 0.0032,0.0015 0.0032,0.0032l0 0.0906zm0.1499 -0.0356l-0.0133 0c-0.0009,-0 -0.0018,-0.0001 -0.0027,-0.0001 -0.0004,0 -0.0008,0 -0.0012,0.0001l-0.1134 0 0 -0.0194 0.1306 0 -0.0001 0.0194zm0.0642 -0.1469c-0.0071,-0.0071 -0.0164,-0.0109 -0.0264,-0.0109 -0.0205,0 -0.0373,0.0167 -0.0373,0.0373l-0.0001 0.021 -0.0116 0c-0.0017,0 -0.0032,-0.0015 -0.0032,-0.0032l0 -0.0906c0,-0.0017 0.0015,-0.0032 0.0032,-0.0032l0.0906 0c0.0018,0 0.0032,0.0015 0.0032,0.0032l0 0.0906c0,0.0018 -0.0015,0.0032 -0.0032,0.0032l-0.0042 0 0 -0.0209c0,-0.01 -0.0039,-0.0193 -0.0109,-0.0264zm0.0973 0.3643l-0.1359 0 0 -0.0194 0.1359 -0 0 0.0194zm0.0664 -0.2202c-0.0018,0.0018 -0.0043,0.0028 -0.0068,0.0028l-0.0326 0c-0.0081,-0.0094 -0.019,-0.0163 -0.0314,-0.0194l0.064 0c0.0053,0 0.0097,0.0044 0.0097,0.0097 0,0.0026 -0.001,0.005 -0.0029,0.0069z"/>
    </g>
   </g>
   <g>
   </g>
   <g>
   </g>
   <g>
   </g>
   <g>
   </g>
   <g>
   </g>
   <g>
   </g>
   <g>
   </g>
   <g>
   </g>
   <g>
   </g>
   <g>
   </g>
   <g>
   </g>
   <g>
   </g>
   <g>
   </g>
   <g>
   </g>
   <g>
   </g>
  </g>
 </g>
</svg>
