<?xml version="1.0" encoding="UTF-8"?>
<!DOCTYPE svg PUBLIC "-//W3C//DTD SVG 1.1//EN" "http://www.w3.org/Graphics/SVG/1.1/DTD/svg11.dtd">
<!-- Creator: CorelDRAW 2019 (64-Bit) -->
<svg xmlns="http://www.w3.org/2000/svg" xml:space="preserve" width="9.2204mm" height="9.2067mm" version="1.1" style="shape-rendering:geometricPrecision; text-rendering:geometricPrecision; image-rendering:optimizeQuality; fill-rule:evenodd; clip-rule:evenodd"
viewBox="0 0 0.9072 0.9059"
 xmlns:xlink="http://www.w3.org/1999/xlink"
 enable-background="new 0 0 512 512">
 <defs>
  <style type="text/css">
   <![CDATA[
    .fil2 {fill:black}
    .fil0 {fill:url(#id2);fill-rule:nonzero}
    .fil1 {fill:url(#id3);fill-rule:nonzero}
   ]]>
  </style>
    <mask id="id0">
  <linearGradient id="id1" gradientUnits="userSpaceOnUse" x1="0.7829" y1="0.0265" x2="1.0346" y2="0.8682">
   <stop offset="0" style="stop-opacity:1; stop-color:white"/>
   <stop offset="1" style="stop-opacity:0; stop-color:white"/>
  </linearGradient>
     <rect style="fill:url(#id1)" width="0.9072" height="0.9059"/>
    </mask>
  <radialGradient id="id2" gradientUnits="userSpaceOnUse" gradientTransform="matrix(0.813067 -2.92692 3.21582 0.0913636 1 2)" cx="0.7621" cy="-0.3533" r="0.4536" fx="0.7621" fy="-0.3533">
   <stop offset="0" style="stop-opacity:1; stop-color:#FEFEFE"/>
   <stop offset="0.180392" style="stop-opacity:1; stop-color:#FEFEFE"/>
   <stop offset="0.65098" style="stop-opacity:1; stop-color:#D0DEEA"/>
   <stop offset="1" style="stop-opacity:1; stop-color:#5A5655"/>
  </radialGradient>
  <linearGradient id="id3" gradientUnits="userSpaceOnUse" x1="0.4536" y1="0.8752" x2="0.4536" y2="0.0307">
   <stop offset="0" style="stop-opacity:1; stop-color:#FEFEFE"/>
   <stop offset="1" style="stop-opacity:1; stop-color:#DFE3F3"/>
  </linearGradient>
 </defs>
 <g id="Layer_x0020_1">
  <metadata id="CorelCorpID_0Corel-Layer"/>
  <g id="_1684507578720">
   <path class="fil0" style="mask:url(#id0)" d="M0.2675 0.0403c-0.2284,0.103 -0.3302,0.3713 -0.2274,0.5992 0.1028,0.2279 0.3713,0.3291 0.5997,0.2261 0.2284,-0.103 0.3302,-0.3713 0.2274,-0.5992 -0.1028,-0.2279 -0.3713,-0.3291 -0.5997,-0.2261z"/>
   <path class="fil1" d="M0.0323 0.4529c0,0.2332 0.1886,0.4223 0.4213,0.4223 0.2327,0 0.4213,-0.1891 0.4213,-0.4223 0,-0.2332 -0.1886,-0.4223 -0.4213,-0.4223 -0.2327,0 -0.4213,0.1891 -0.4213,0.4223z"/>
  </g>
  <g id="_1684507580064">
   <g>
    <g>
     <path class="fil2" d="M0.6026 0.2436l-0.2833 0c-0.0207,0 -0.0374,0.0168 -0.0374,0.0374l0 0.3439c0,0.0207 0.0168,0.0374 0.0374,0.0374l0.2833 0c0.0126,0 0.0228,-0.0102 0.0228,-0.0228l0 -0.3731c0,-0.0126 -0.0102,-0.0228 -0.0228,-0.0228l0 0zm-0.3044 0.3813c0,-0.0116 0.0095,-0.0211 0.0211,-0.0211l0.257 0 0 0.0422 -0.257 0c-0.0116,0 -0.0211,-0.0095 -0.0211,-0.0211zm0.3108 0.0146c0,0.0036 -0.0029,0.0065 -0.0065,0.0065l-0.0099 0 0 -0.0422 0.0099 0c0.0022,0 0.0044,-0.0003 0.0065,-0.0009l0 0.0366zm0 -0.0585c0,0.0036 -0.0029,0.0065 -0.0065,0.0065l-0.2716 0 0 -0.127c0,-0.0045 -0.0037,-0.0082 -0.0082,-0.0082 -0.0045,0 -0.0082,0.0037 -0.0082,0.0082l0 0.1273c-0.006,0.0008 -0.0116,0.0029 -0.0164,0.0062l0 -0.313c0,-0.01 0.007,-0.0184 0.0164,-0.0205l0 0.1264c0,0.0045 0.0037,0.0082 0.0082,0.0082 0.0045,0 0.0082,-0.0037 0.0082,-0.0082l0 -0.1269 0.2716 0c0.0036,0 0.0065,0.0029 0.0065,0.0065l0 0.3146z"/>
     <path class="fil2" d="M0.528 0.3318c-0.0062,0 -0.0123,0.0012 -0.0179,0.0034 -0.0089,-0.0132 -0.0238,-0.0213 -0.0401,-0.0213 -0.0162,0 -0.0312,0.0081 -0.0401,0.0213 -0.0057,-0.0023 -0.0117,-0.0034 -0.0179,-0.0034 -0.0266,0 -0.0483,0.0217 -0.0483,0.0483 0,0.0205 0.0126,0.0382 0.0312,0.0452l0 0.0955c0,0.007 0.0057,0.0126 0.0126,0.0126l0.1249 0c0.007,0 0.0126,-0.0057 0.0126,-0.0126l0 -0.0955c0.0187,-0.007 0.0312,-0.0248 0.0312,-0.0452 0,-0.0266 -0.0217,-0.0483 -0.0483,-0.0483l0 0zm-0.1167 0.1853l0 -0.0164 0.1175 0 0 0.0164 -0.1175 0zm0.1238 -0.1058c-0.0037,0.0008 -0.0064,0.0042 -0.0064,0.008l0 0.0651 -0.1175 0 0 -0.0651c0,-0.0038 -0.0026,-0.0071 -0.0064,-0.008 -0.0146,-0.0033 -0.0249,-0.0161 -0.0249,-0.0312 0,-0.0176 0.0143,-0.032 0.032,-0.032 0.006,0 0.0119,0.0017 0.0169,0.0048 0.002,0.0012 0.0045,0.0016 0.0067,0.0009 0.0023,-0.0007 0.0041,-0.0023 0.0051,-0.0045 0.0051,-0.0116 0.0166,-0.0191 0.0293,-0.0191 0.0127,0 0.0241,0.0075 0.0293,0.0191 0.001,0.0022 0.0028,0.0038 0.0051,0.0045 0.0023,0.0007 0.0047,0.0004 0.0067,-0.0009 0.0051,-0.0032 0.0109,-0.0048 0.0169,-0.0048 0.0176,0 0.032,0.0143 0.032,0.032 0,0.015 -0.0102,0.0279 -0.0249,0.0312z"/>
     <path class="fil2" d="M0.3228 0.4155c-0.0045,0 -0.0082,0.0037 -0.0082,0.0082 0,0.0045 0.0037,0.0082 0.0082,0.0082 0.0045,0 0.0082,-0.0037 0.0082,-0.0082l0 0c0,-0.0045 -0.0037,-0.0082 -0.0082,-0.0082l0 0z"/>
    </g>
   </g>
  </g>
 </g>
</svg>
