<?xml version="1.0" encoding="UTF-8"?>
<!DOCTYPE svg PUBLIC "-//W3C//DTD SVG 1.1//EN" "http://www.w3.org/Graphics/SVG/1.1/DTD/svg11.dtd">
<!-- Creator: CorelDRAW 2019 (64-Bit) -->
<svg xmlns="http://www.w3.org/2000/svg" xml:space="preserve" width="9.2204mm" height="9.2067mm" version="1.1" style="shape-rendering:geometricPrecision; text-rendering:geometricPrecision; image-rendering:optimizeQuality; fill-rule:evenodd; clip-rule:evenodd"
viewBox="0 0 0.6674 0.6664"
 xmlns:xlink="http://www.w3.org/1999/xlink">
 <defs>
  <style type="text/css">
   <![CDATA[
    .fil2 {fill:#2B2A29}
    .fil0 {fill:url(#id2);fill-rule:nonzero}
    .fil1 {fill:url(#id3);fill-rule:nonzero}
   ]]>
  </style>
   <mask id="id0">
  <linearGradient id="id1" gradientUnits="userSpaceOnUse" x1="0.576" y1="0.0195" x2="0.7611" y2="0.6387">
   <stop offset="0" style="stop-opacity:1; stop-color:white"/>
   <stop offset="1" style="stop-opacity:0; stop-color:white"/>
  </linearGradient>
    <rect style="fill:url(#id1)" width="0.6674" height="0.6664"/>
   </mask>
  <radialGradient id="id2" gradientUnits="userSpaceOnUse" gradientTransform="matrix(0.813067 -2.92692 3.21582 0.0913636 1 1)" cx="0.5606" cy="-0.2599" r="0.3337" fx="0.5606" fy="-0.2599">
   <stop offset="0" style="stop-opacity:1; stop-color:#FEFEFE"/>
   <stop offset="0.180392" style="stop-opacity:1; stop-color:#FEFEFE"/>
   <stop offset="0.65098" style="stop-opacity:1; stop-color:#D0DEEA"/>
   <stop offset="1" style="stop-opacity:1; stop-color:#5A5655"/>
  </radialGradient>
  <linearGradient id="id3" gradientUnits="userSpaceOnUse" x1="0.3337" y1="0.6439" x2="0.3337" y2="0.0226">
   <stop offset="0" style="stop-opacity:1; stop-color:#FEFEFE"/>
   <stop offset="1" style="stop-opacity:1; stop-color:#DFE3F3"/>
  </linearGradient>
 </defs>
 <g id="Layer_x0020_1">
  <metadata id="CorelCorpID_0Corel-Layer"/>
  <path class="fil0" style="mask:url(#id0)" d="M0.1968 0.0297c-0.168,0.0758 -0.2429,0.2731 -0.1673,0.4408 0.0756,0.1676 0.2731,0.2421 0.4412,0.1663 0.168,-0.0758 0.2429,-0.2731 0.1673,-0.4408 -0.0756,-0.1676 -0.2731,-0.2421 -0.4412,-0.1663z"/>
  <path class="fil1" d="M0.0238 0.3332c0,0.1716 0.1388,0.3107 0.31,0.3107 0.1712,0 0.31,-0.1391 0.31,-0.3107 0,-0.1716 -0.1388,-0.3107 -0.31,-0.3107 -0.1712,0 -0.31,0.1391 -0.31,0.3107z"/>
  <g id="_1687498378368">
   <path class="fil2" d="M0.3301 0.287c0.0034,0 0.0061,-0.0027 0.0061,-0.0061 0,-0.0034 -0.0027,-0.0061 -0.0061,-0.0061 -0.0034,0 -0.0061,0.0027 -0.0061,0.0061 0,0.0034 0.0027,0.0061 0.0061,0.0061zm0 0z"/>
   <path class="fil2" d="M0.3301 0.3113c0.0034,0 0.0061,-0.0027 0.0061,-0.0061 0,-0.0034 -0.0027,-0.0061 -0.0061,-0.0061 -0.0034,0 -0.0061,0.0027 -0.0061,0.0061 0,0.0034 0.0027,0.0061 0.0061,0.0061zm0 0z"/>
   <path class="fil2" d="M0.4878 0.24l-0.0609 -0.0609c-0.0011,-0.0011 -0.0026,-0.0018 -0.0043,-0.0018l-0.1534 0c-0.0101,0 -0.0183,0.0082 -0.0183,0.0183l0 0.0185c-0.002,-0.0002 -0.0041,-0.0003 -0.0061,-0.0003 -0.0369,0 -0.067,0.03 -0.067,0.067 0,0.0369 0.03,0.067 0.067,0.067 0.002,0 0.0041,-0.0001 0.0061,-0.0003l0 0.1232c0,0.0101 0.0082,0.0183 0.0183,0.0183l0.2021 0c0.0101,0 0.0183,-0.0082 0.0183,-0.0183l0 -0.2264c0,-0.0017 -0.0007,-0.0032 -0.0018,-0.0043l0 0zm-0.0591 -0.0419l0.0401 0.0401 -0.0401 0 0 -0.0401zm-0.1777 0.0283c0.0257,0.0028 0.0455,0.0233 0.0483,0.0484l-0.0483 0 0 -0.0484zm-0.0609 0.0544c0,-0.0282 0.0213,-0.0514 0.0487,-0.0544l0 0.0544c0,0.0034 0.0027,0.0061 0.0061,0.0061l0.0544 0c-0.0031,0.0272 -0.0261,0.0487 -0.0544,0.0487 -0.0302,0 -0.0548,-0.0246 -0.0548,-0.0548l0 0zm0.2812 0.196l-0.2021 0c-0.0034,0 -0.0061,-0.0027 -0.0061,-0.0061l0 -0.1255c0.0285,-0.0081 0.0487,-0.0344 0.0487,-0.0644 0,-0.03 -0.0202,-0.0564 -0.0487,-0.0644l0 -0.0208c0,-0.0034 0.0027,-0.0061 0.0061,-0.0061l0.1473 0 0 0.0548c0,0.0034 0.0027,0.0061 0.0061,0.0061l0.0548 0 0 0.2203c0,0.0034 -0.0027,0.0061 -0.0061,0.0061l0 0zm0 0z"/>
   <path class="fil2" d="M0.3337 0.2261l0.0645 0c0.0034,0 0.0061,-0.0027 0.0061,-0.0061 0,-0.0034 -0.0027,-0.0061 -0.0061,-0.0061l-0.0645 0c-0.0034,0 -0.0061,0.0027 -0.0061,0.0061 0,0.0034 0.0027,0.0061 0.0061,0.0061l0 0zm0 0z"/>
   <path class="fil2" d="M0.3337 0.2504l0.0645 0c0.0034,0 0.0061,-0.0027 0.0061,-0.0061 0,-0.0034 -0.0027,-0.0061 -0.0061,-0.0061l-0.0645 0c-0.0034,0 -0.0061,0.0027 -0.0061,0.0061 0,0.0034 0.0027,0.0061 0.0061,0.0061l0 0zm0 0z"/>
   <path class="fil2" d="M0.2448 0.3113c-0.0168,0 -0.0304,-0.0137 -0.0304,-0.0304 0,-0.0034 -0.0027,-0.0061 -0.0061,-0.0061 -0.0034,0 -0.0061,0.0027 -0.0061,0.0061 0,0.0235 0.0191,0.0426 0.0426,0.0426 0.0034,0 0.0061,-0.0027 0.0061,-0.0061 0,-0.0034 -0.0027,-0.0061 -0.0061,-0.0061l0 0zm0 0z"/>
   <path class="fil2" d="M0.4451 0.3393c-0.0101,0 -0.0183,0.0082 -0.0183,0.0183 0,0.0038 0.0012,0.0073 0.0031,0.0102l-0.0423 0.0454c-0.0017,-0.0005 -0.0034,-0.0008 -0.0053,-0.0008 -0.0026,0 -0.0051,0.0005 -0.0073,0.0015l-0.019 -0.0236c0.0013,-0.0026 0.002,-0.0054 0.002,-0.0084 0,-0.0101 -0.0082,-0.0183 -0.0183,-0.0183 -0.0101,0 -0.0183,0.0082 -0.0183,0.0183 0,0.0028 0.0007,0.0056 0.0019,0.0081l-0.0222 0.0241c-0.0024,-0.0011 -0.005,-0.0017 -0.0077,-0.0017 -0.0101,0 -0.0183,0.0082 -0.0183,0.0183 0,0.0101 0.0082,0.0183 0.0183,0.0183 0.0101,0 0.0183,-0.0082 0.0183,-0.0183 0,-0.0028 -0.0007,-0.0056 -0.0019,-0.0081l0.0222 -0.0241c0.0024,0.0011 0.005,0.0017 0.0077,0.0017 0.0026,0 0.0051,-0.0005 0.0073,-0.0015l0.019 0.0236c-0.0013,0.0026 -0.002,0.0054 -0.002,0.0084 0,0.0101 0.0082,0.0183 0.0183,0.0183 0.0101,0 0.0183,-0.0082 0.0183,-0.0183 0,-0.0038 -0.0012,-0.0073 -0.0031,-0.0102l0.0423 -0.0454c0.0017,0.0005 0.0035,0.0008 0.0053,0.0008 0.0101,0 0.0183,-0.0082 0.0183,-0.0183 0,-0.0101 -0.0082,-0.0183 -0.0183,-0.0183zm-0.1516 0.0974c-0.0034,0 -0.0061,-0.0027 -0.0061,-0.0061 0,-0.0034 0.0027,-0.0061 0.0061,-0.0061 0.0034,0 0.0061,0.0027 0.0061,0.0061 0,0.0034 -0.0027,0.0061 -0.0061,0.0061zm0.0402 -0.0548c0,-0.0034 0.0027,-0.0061 0.0061,-0.0061 0.0034,0 0.0061,0.0027 0.0061,0.0061 0,0.0034 -0.0027,0.0061 -0.0061,0.0061 -0.0034,0 -0.0061,-0.0027 -0.0061,-0.0061zm0.0487 0.0548c-0.0034,0 -0.0061,-0.0027 -0.0061,-0.0061 0,-0.0034 0.0027,-0.0061 0.0061,-0.0061 0.0034,0 0.0061,0.0027 0.0061,0.0061 0,0.0034 -0.0027,0.0061 -0.0061,0.0061zm0.0627 -0.073c-0.0034,0 -0.0061,-0.0027 -0.0061,-0.0061 0,-0.0034 0.0027,-0.0061 0.0061,-0.0061 0.0034,0 0.0061,0.0027 0.0061,0.0061 0,0.0034 -0.0027,0.0061 -0.0061,0.0061zm0 0z"/>
   <path class="fil2" d="M0.3483 0.2809c0,0.0034 0.0027,0.0061 0.0061,0.0061l0.0925 0c0.0034,0 0.0061,-0.0027 0.0061,-0.0061 0,-0.0034 -0.0027,-0.0061 -0.0061,-0.0061l-0.0925 0c-0.0034,0 -0.0061,0.0027 -0.0061,0.0061l0 0zm0 0z"/>
   <path class="fil2" d="M0.4469 0.2991l-0.0925 0c-0.0034,0 -0.0061,0.0027 -0.0061,0.0061 0,0.0034 0.0027,0.0061 0.0061,0.0061l0.0925 0c0.0034,0 0.0061,-0.0027 0.0061,-0.0061 0,-0.0034 -0.0027,-0.0061 -0.0061,-0.0061zm0 0z"/>
  </g>
 </g>
</svg>
