<?xml version="1.0" encoding="UTF-8"?>
<!DOCTYPE svg PUBLIC "-//W3C//DTD SVG 1.1//EN" "http://www.w3.org/Graphics/SVG/1.1/DTD/svg11.dtd">
<!-- Creator: CorelDRAW 2019 (64-Bit) -->
<svg xmlns="http://www.w3.org/2000/svg" xml:space="preserve" width="2.5054mm" height="2.7358mm" version="1.1" style="shape-rendering:geometricPrecision; text-rendering:geometricPrecision; image-rendering:optimizeQuality; fill-rule:evenodd; clip-rule:evenodd"
viewBox="0 0 0.0356 0.0389"
 xmlns:xlink="http://www.w3.org/1999/xlink">
 <defs>
  <style type="text/css">
   <![CDATA[
    .fil1 {fill:url(#id0)}
    .fil0 {fill:url(#id1)}
   ]]>
  </style>
  <linearGradient id="id0" gradientUnits="userSpaceOnUse" x1="0.0178" y1="0.0162" x2="0.0176" y2="0.0015">
   <stop offset="0" style="stop-opacity:1; stop-color:#4F5FFF"/>
   <stop offset="1" style="stop-opacity:1; stop-color:#01B3ED"/>
  </linearGradient>
  <linearGradient id="id1" gradientUnits="userSpaceOnUse" xlink:href="#id0" x1="0.0343" y1="0.0344" x2="0.0129" y2="0.0062">
  </linearGradient>
 </defs>
 <g id="Layer_x0020_1">
  <metadata id="CorelCorpID_0Corel-Layer"/>
  <path class="fil0" d="M0.0178 0.0389c0.0098,-0 0.0178,-0.008 0.0178,-0.0178 0,-0.0071 -0.0042,-0.0135 -0.0107,-0.0163 -0.0002,-0.0001 -0.0004,-0.0001 -0.0007,-0.0001 -0.0009,0 -0.0016,0.0007 -0.0016,0.0016 0,0.0006 0.0004,0.0012 0.001,0.0015 0.0053,0.0023 0.0087,0.0076 0.0087,0.0134 0,0.008 -0.0065,0.0146 -0.0146,0.0146 -0.008,0 -0.0146,-0.0065 -0.0146,-0.0146 0,-0.0058 0.0034,-0.011 0.0087,-0.0134 0.0006,-0.0003 0.001,-0.0008 0.001,-0.0015 0,-0.0009 -0.0007,-0.0016 -0.0016,-0.0016 -0.0002,0 -0.0004,0 -0.0007,0.0001 -0.0065,0.0028 -0.0107,0.0092 -0.0107,0.0163 0,0.0098 0.008,0.0178 0.0178,0.0178l0 0z"/>
  <path class="fil1" d="M0.0178 0.0162c0.0009,0 0.0016,-0.0007 0.0016,-0.0016l0 -0.013c0,-0.0009 -0.0007,-0.0016 -0.0016,-0.0016 -0.0009,0 -0.0016,0.0007 -0.0016,0.0016l0 0.013c0,0.0009 0.0007,0.0016 0.0016,0.0016l0 0z"/>
 </g>
</svg>
