<?xml version="1.0" encoding="UTF-8"?>
<!DOCTYPE svg PUBLIC "-//W3C//DTD SVG 1.1//EN" "http://www.w3.org/Graphics/SVG/1.1/DTD/svg11.dtd">
<!-- Creator: CorelDRAW 2019 (64-Bit) -->
<svg xmlns="http://www.w3.org/2000/svg" xml:space="preserve" width="4.2259mm" height="4.2259mm" version="1.1" style="shape-rendering:geometricPrecision; text-rendering:geometricPrecision; image-rendering:optimizeQuality; fill-rule:evenodd; clip-rule:evenodd"
viewBox="0 0 0.8427 0.8427"
 xmlns:xlink="http://www.w3.org/1999/xlink">
 <defs>
  <style type="text/css">
   <![CDATA[
    .fil2 {fill:none;fill-rule:nonzero}
    .fil3 {fill:#4218EF}
    .fil1 {fill:url(#id1);fill-rule:nonzero}
    .fil0 {fill:url(#id2);fill-rule:nonzero}
   ]]>
  </style>
     <clipPath id="id0">
      <rect width="0.8427" height="0.8427"/>
     </clipPath>
  <linearGradient id="id1" gradientUnits="userSpaceOnUse" x1="0.4219" y1="0.6813" x2="0.4219" y2="0.6786">
   <stop offset="0" style="stop-opacity:1; stop-color:#DFE3F3"/>
   <stop offset="1" style="stop-opacity:1; stop-color:#F8F9FD"/>
  </linearGradient>
  <linearGradient id="id2" gradientUnits="userSpaceOnUse" x1="0.4219" y1="0.6799" x2="0.4219" y2="0.0855">
   <stop offset="0" style="stop-opacity:1; stop-color:#DFE3F3"/>
   <stop offset="1" style="stop-opacity:1; stop-color:#FEFEFE"/>
  </linearGradient>
 </defs>
 <g id="Layer_x0020_1">
  <metadata id="CorelCorpID_0Corel-Layer"/>
  <g id="_2454968474624">
   <g>
    <g style="clip-path:url(#id0)">
     <image x="-0" y="0" width="0.8427" height="0.8427" xlink:href="User Account_F_Images\User Account_F_ImgID1.png"/>
    </g>
    <g>
     <path class="fil0" d="M0.6484 0.6799l-0.4531 0c-0.0391,0 -0.0707,-0.0317 -0.0707,-0.0707l0 -0.4531c0,-0.039 0.0316,-0.0707 0.0707,-0.0707l0.4531 0c0.039,0 0.0707,0.0317 0.0707,0.0707l0 0.4531c0,0.039 -0.0316,0.0707 -0.0707,0.0707z"/>
     <polygon class="fil1" points="0.1954,0.6813 0.6484,0.6813 0.6484,0.6786 "/>
     <path class="fil2" d="M0.1954 0.6799c-0.0391,0 -0.0707,-0.0317 -0.0707,-0.0707"/>
     <line class="fil2" x1="0.1247" y1="0.6092" x2="0.1247" y2= "0.1562" />
     <path class="fil2" d="M0.1247 0.1562c0,-0.039 0.0316,-0.0707 0.0707,-0.0707"/>
     <line class="fil2" x1="0.1954" y1="0.0854" x2="0.6484" y2= "0.0854" />
     <path class="fil2" d="M0.6484 0.0854c0.039,0 0.0707,0.0317 0.0707,0.0707"/>
     <line class="fil2" x1="0.7191" y1="0.1562" x2="0.7191" y2= "0.6092" />
     <path class="fil2" d="M0.7191 0.6092c0,0.039 -0.0316,0.0707 -0.0707,0.0707"/>
    </g>
   </g>
   <path class="fil3" d="M0.4018 0.513c-0.0014,-0.0059 -0.0078,-0.01 -0.0047,-0.0145l0.0068 -0.0093c0.0053,-0.0066 0.001,0.0101 -0.0001,0.0182 -0.0005,0.0036 0.0002,0.004 -0.002,0.0056zm0.0384 0c-0.0011,-0.0047 -0.0017,-0.0103 -0.0026,-0.0155 -0.0005,-0.003 -0.0019,-0.0081 -0.0006,-0.0094 0.0013,-0.0013 0,-0.0005 0.0009,0 0,0 0.0091,0.0111 0.0088,0.0134l-0.0065 0.0115zm-0.0188 -0.0469c0.0019,0.0013 0.0025,0.0027 0.0038,0.0045 0.0013,0.0018 0.0025,0.0034 0.0038,0.0053l-0.0023 0.003c-0.0008,0.0012 -0.0016,0.0023 -0.0024,0.0036 -0.0023,0.0037 -0.002,0.0042 -0.0011,0.009l0.0063 0.0404c-0,0.0036 -0.0061,0.0108 -0.0073,0.0158 -0.0029,-0.0019 -0.0028,-0.0037 -0.0045,-0.0068 -0.0059,-0.0102 -0.0047,-0.0063 -0.0011,-0.0283 0.0012,-0.0069 0.0057,-0.0244 0.0025,-0.0298l-0.0052 -0.0069c0.0015,-0.0022 0.0057,-0.0085 0.0075,-0.0098zm0.0595 0.0091c0,0.0047 0.0053,0.0125 0.0075,0.0166l-0.0201 0.0183c-0.0021,0.0021 -0.0033,0.0026 -0.0053,0.0045 -0.0018,0.0017 -0.003,0.0032 -0.0049,0.0049 -0.0021,0.0019 -0.0032,0.0024 -0.0053,0.0045 -0.0018,0.0018 -0.0031,0.0034 -0.0051,0.0047 0.0007,-0.0028 0.009,-0.0173 0.011,-0.0207 0.0011,-0.0019 0.0017,-0.0033 0.0026,-0.005 0.001,-0.002 0.002,-0.0032 0.003,-0.0053l0.0195 -0.0356c0.0011,-0.0018 0.0017,-0.0035 0.0028,-0.0055l0.0043 -0.0078c0.0007,-0.0011 0.0013,-0.0018 0.002,-0.0026l0.0105 0.0219c-0.0047,0 -0.0095,-0.0002 -0.0139,0.0004 -0.005,0.0007 -0.0087,0.0008 -0.0087,0.0064zm-0.1307 -0.0286c0.0016,0.0012 0.0038,0.0063 0.0057,0.0097 0.0117,0.0204 0.025,0.0477 0.0366,0.0668 0.0012,0.002 0.002,0.0034 0.0026,0.0057l-0.0303 -0.0278c-0.0019,-0.002 -0.003,-0.0032 -0.0051,-0.0047 -0.0021,-0.0016 -0.0032,-0.0032 -0.0053,-0.0045 0.0108,-0.0206 0.0137,-0.0234 -0.0151,-0.0234l0.0108 -0.0218zm0.1563 -0.0024c0.0033,0.0003 0.0063,0.002 0.0091,0.0029 0.0073,0.0024 0.0579,0.0205 0.062,0.0232 0.0051,0.0034 0.0089,0.0072 0.0117,0.0125 0.0029,0.0055 0.0036,0.0125 0.0048,0.0202 0.0015,0.0105 0.0065,0.0347 0.0065,0.0433 0,0.0061 -0.0052,0.0091 -0.012,0.0091l-0.1491 -0 0.0566 -0.0527c0.0059,-0.0059 0.0118,-0.0061 0.0021,-0.0206 0.012,0 0.0226,0.0028 0.0226,-0.0076 0,-0.0027 -0.0123,-0.0263 -0.0143,-0.0302zm-0.1845 0.0302c0,0.0101 0.0092,0.0076 0.0226,0.0076 -0.009,0.0135 -0.005,0.014 0.0013,0.0198l0.0452 0.0416c0.0041,0.004 0.0103,0.0091 0.0122,0.0119l-0.1483 0c-0.0185,0.0002 -0.0123,-0.0154 -0.0098,-0.031 0.0015,-0.0089 0.0049,-0.0339 0.0078,-0.0405 0.0026,-0.0058 0.0069,-0.0099 0.0117,-0.0132 0.0048,-0.0032 0.0447,-0.0173 0.053,-0.0201l0.0185 -0.0063c-0.0021,0.004 -0.0143,0.0276 -0.0143,0.0302zm0.1333 0.0129l-0.0015 0c-0.0007,-0.0028 -0.0193,-0.0269 -0.0226,-0.0317 0.0036,-0.0024 0.0368,-0.0249 0.0376,-0.0249 0.0027,0 0.0091,0.0033 0.0143,0.0045 -0.0023,0.0043 -0.0044,0.0086 -0.0068,0.0128l-0.0177 0.0321c-0.0014,0.0023 -0.0027,0.0047 -0.0033,0.0072zm-0.0956 -0.0522c0.0186,-0.0043 0.0066,-0.0099 0.033,0.0077 0.0065,0.0043 0.0126,0.0084 0.019,0.0127l-0.0172 0.0236c-0.0016,0.0023 -0.0048,0.0058 -0.0054,0.0082 -0.0037,-0.0025 -0.0274,-0.0485 -0.0294,-0.0522zm0.0218 -0.0212c0.011,0.0058 0.0221,0.0162 0.0398,0.0157 0.0118,-0.0003 0.0226,-0.0044 0.0318,-0.0103 0.0031,-0.002 0.0054,-0.0044 0.0081,-0.0062l0 0.006 -0.02 0.0132c-0.0069,0.0046 -0.0132,0.0088 -0.0199,0.0133 -0.0015,-0.001 -0.0373,-0.0258 -0.0399,-0.0265l0 -0.0053zm0.0437 0.0015c-0.015,0 -0.0186,-0.001 -0.0342,-0.0118 -0.0039,-0.0027 -0.007,-0.0052 -0.0108,-0.0081 -0.0082,-0.0062 -0.0132,-0.0095 -0.0183,-0.0194 -0.007,-0.0136 -0.0113,-0.0283 -0.0113,-0.0454l0 -0.0469c0,-0.0079 0.0047,-0.0154 0.0103,-0.0199 0.0148,-0.0121 0.0315,-0.0012 0.0521,-0.0082 0.03,-0.0101 0.0199,-0.0103 0.0503,0.0004 0.0098,0.0034 0.0146,0.0037 0.022,0.0112 0.003,0.0031 0.0069,0.0092 0.0069,0.0149l0 0.0476c0,0.0214 -0.0092,0.0457 -0.0197,0.0565 -0.0058,0.0059 -0.0128,0.0098 -0.0207,0.017 -0.0049,0.0044 -0.0176,0.0119 -0.0265,0.0119zm0.0572 -0.2003c0,0.0065 0.0072,0.0042 0.016,0.0112 0.0035,0.0028 0.0089,0.0114 0.0089,0.0175 0,0.0072 0.0009,0.0469 -0.0007,0.0507 -0.0004,0.0011 -0.0004,0.0009 -0.0008,0.0014 0,-0.0134 0.0009,-0.0186 -0.0037,-0.028 -0.0099,-0.0202 -0.0284,-0.0223 -0.0491,-0.0301 -0.021,-0.0079 -0.0274,0.0004 -0.0467,0.0058 -0.0104,0.0029 -0.0259,-0.0011 -0.0371,0.0013 -0.0094,0.002 -0.0186,0.0085 -0.0235,0.015 -0.008,0.0107 -0.0086,0.0173 -0.0086,0.0299 -0.0013,-0.002 -0.0015,-0.0043 -0.0015,-0.0068 0,-0.0269 -0.0038,-0.0525 0.0141,-0.0705 0.0084,-0.0084 0.0206,-0.0157 0.0333,-0.0157l0.0896 0c0.0052,0 0.0113,0.0033 0.0113,0.0083 0,0.004 -0.0015,0.0052 -0.0015,0.0098zm-0.1604 0.034c0,0.0171 -0.0021,0.0381 0.0043,0.0509 0.003,0.006 0.0065,0.009 0.0085,0.0142 0.0052,0.014 -0.0023,0.0421 0.0183,0.0731 0.0165,0.0247 0.0149,0.0046 0.0149,0.0311 -0.0038,0.0003 -0.1041,0.0371 -0.1092,0.04 -0.0097,0.0056 -0.0184,0.0169 -0.021,0.0288 -0.0015,0.007 -0.0091,0.0507 -0.0091,0.0589 0,0.0119 0.0108,0.0227 0.0226,0.0227l0.3403 0c0.012,0 0.0226,-0.0103 0.0226,-0.0242 0,-0.0058 -0.0081,-0.0526 -0.0091,-0.0574 -0.0064,-0.03 -0.0345,-0.034 -0.0569,-0.0427 -0.0059,-0.0023 -0.0694,-0.0258 -0.0733,-0.0261 0,-0.0035 -0,-0.0071 -0,-0.0106 -0.0001,-0.0098 0.0029,-0.0047 0.0133,-0.0192 0.021,-0.0291 0.0118,-0.0529 0.0269,-0.0811 0.0026,-0.0049 0.0058,-0.0087 0.0058,-0.0161l0 -0.0484c0,-0.0077 -0.0046,-0.0158 -0.008,-0.0207 -0.003,-0.0043 -0.0107,-0.0113 -0.0161,-0.0125 0.0016,-0.0032 0.0006,-0.0076 -0.0004,-0.0109 -0.0027,-0.0086 -0.013,-0.0156 -0.0229,-0.0156l-0.0896 0c-0.0324,0 -0.0617,0.0298 -0.0617,0.0657z"/>
  </g>
 </g>
</svg>
