<?xml version="1.0" encoding="UTF-8"?>
<!DOCTYPE svg PUBLIC "-//W3C//DTD SVG 1.1//EN" "http://www.w3.org/Graphics/SVG/1.1/DTD/svg11.dtd">
<!-- Creator: CorelDRAW 2019 (64-Bit) -->
<svg xmlns="http://www.w3.org/2000/svg" xml:space="preserve" width="9.2204mm" height="9.2067mm" version="1.1" style="shape-rendering:geometricPrecision; text-rendering:geometricPrecision; image-rendering:optimizeQuality; fill-rule:evenodd; clip-rule:evenodd"
viewBox="0 0 1.3542 1.3522"
 xmlns:xlink="http://www.w3.org/1999/xlink">
 <defs>
  <style type="text/css">
   <![CDATA[
    .fil2 {fill:black}
    .fil0 {fill:url(#id2);fill-rule:nonzero}
    .fil1 {fill:url(#id3);fill-rule:nonzero}
   ]]>
  </style>
    <mask id="id0">
  <linearGradient id="id1" gradientUnits="userSpaceOnUse" x1="1.1687" y1="0.0395" x2="1.5443" y2="1.296">
   <stop offset="0" style="stop-opacity:1; stop-color:white"/>
   <stop offset="1" style="stop-opacity:0; stop-color:white"/>
  </linearGradient>
     <rect style="fill:url(#id1)" width="1.3542" height="1.3522"/>
    </mask>
  <radialGradient id="id2" gradientUnits="userSpaceOnUse" gradientTransform="matrix(0.813067 -2.92692 3.21582 0.0913636 2 3)" cx="1.1375" cy="-0.5274" r="0.6771" fx="1.1375" fy="-0.5274">
   <stop offset="0" style="stop-opacity:1; stop-color:#FEFEFE"/>
   <stop offset="0.180392" style="stop-opacity:1; stop-color:#FEFEFE"/>
   <stop offset="0.65098" style="stop-opacity:1; stop-color:#D0DEEA"/>
   <stop offset="1" style="stop-opacity:1; stop-color:#5A5655"/>
  </radialGradient>
  <linearGradient id="id3" gradientUnits="userSpaceOnUse" x1="0.6771" y1="1.3064" x2="0.6771" y2="0.0458">
   <stop offset="0" style="stop-opacity:1; stop-color:#FEFEFE"/>
   <stop offset="1" style="stop-opacity:1; stop-color:#DFE3F3"/>
  </linearGradient>
 </defs>
 <g id="Layer_x0020_1">
  <metadata id="CorelCorpID_0Corel-Layer"/>
  <g id="_1686666206480">
   <path class="fil0" style="mask:url(#id0)" d="M0.3993 0.0602c-0.3409,0.1538 -0.4929,0.5542 -0.3394,0.8944 0.1534,0.3402 0.5542,0.4912 0.8951,0.3374 0.3409,-0.1538 0.4929,-0.5542 0.3394,-0.8944 -0.1534,-0.3402 -0.5542,-0.4912 -0.8951,-0.3374z"/>
   <path class="fil1" d="M0.0482 0.6761c0,0.3481 0.2816,0.6303 0.6289,0.6303 0.3473,0 0.6289,-0.2822 0.6289,-0.6303 0,-0.3481 -0.2816,-0.6303 -0.6289,-0.6303 -0.3473,0 -0.6289,0.2822 -0.6289,0.6303z"/>
  </g>
  <g id="_1686666209232">
   <path class="fil2" d="M0.94 0.6569l0 -0.0219c0.006,0 0.011,-0.0049 0.011,-0.011l0 -0.0657c0,-0.0061 -0.0049,-0.011 -0.011,-0.011l-0.0592 0 -0.0021 -0.0082c-0.0048,-0.0188 -0.0124,-0.0368 -0.0224,-0.0535l-0.0044 -0.0073 0.042 -0.0421c0.0042,-0.0042 0.0042,-0.0111 0,-0.0153l-0.0465 -0.0466c-0.0043,-0.0041 -0.011,-0.0041 -0.0153,0l-0.0421 0.0421 -0.0073 -0.0044c-0.0167,-0.01 -0.0347,-0.0175 -0.0536,-0.0224l-0.0082 -0.0021 0 -0.0592c0,-0.0061 -0.0049,-0.011 -0.011,-0.011l-0.0657 0c-0.0061,0 -0.011,0.0049 -0.011,0.011l0 0.0592 -0.0082 0.0021c-0.0188,0.0048 -0.0369,0.0124 -0.0535,0.0223l-0.0073 0.0044 -0.0421 -0.042c-0.0043,-0.0041 -0.0111,-0.0041 -0.0154,0l-0.0465 0.0465c-0.002,0.002 -0.0032,0.0048 -0.0032,0.0077 0,0.0029 0.0012,0.0057 0.0032,0.0077l0.0421 0.0421 -0.0044 0.0073c-0.01,0.0167 -0.0175,0.0347 -0.0224,0.0535l-0.0021 0.0082 -0.0592 0c-0.0061,0 -0.011,0.0049 -0.011,0.011l0 0.0657c0,0.0061 0.0049,0.011 0.011,0.011l0 0.0219c-0.0181,0 -0.0329,-0.0147 -0.0329,-0.0329l0 -0.0657c0,-0.0182 0.0147,-0.0329 0.0329,-0.0329l0.0424 0c0.0045,-0.0151 0.0106,-0.0298 0.0182,-0.0436l-0.0301 -0.0301c-0.0062,-0.0062 -0.0096,-0.0145 -0.0096,-0.0232 0,-0.0087 0.0035,-0.0171 0.0096,-0.0232l0.0466 -0.0466c0.013,-0.0124 0.0334,-0.0124 0.0464,0l0.0301 0.0301c0.0139,-0.0076 0.0285,-0.0137 0.0436,-0.0182l0 -0.0424c0,-0.0182 0.0147,-0.0329 0.0329,-0.0329l0.0657 0c0.0181,0 0.0329,0.0147 0.0329,0.0329l0 0.0424c0.0152,0.0045 0.0298,0.0106 0.0436,0.0182l0.0301 -0.0301c0.013,-0.0124 0.0334,-0.0124 0.0464,0l0.0466 0.0465c0.0062,0.0062 0.0096,0.0145 0.0096,0.0232 0,0.0087 -0.0035,0.0171 -0.0096,0.0232l-0.0301 0.0301c0.0076,0.0139 0.0137,0.0285 0.0182,0.0437l0.0424 0c0.0181,0 0.0329,0.0147 0.0329,0.0329l0 0.0657c0,0.0182 -0.0147,0.0329 -0.0329,0.0329zm0 0z"/>
   <path class="fil2" d="M0.8305 0.5912l-0.0219 0c0,-0.0726 -0.0589,-0.1315 -0.1315,-0.1315 -0.0726,0 -0.1315,0.0589 -0.1315,0.1315l-0.0219 0c0,-0.0847 0.0687,-0.1534 0.1534,-0.1534 0.0847,0 0.1534,0.0687 0.1534,0.1534zm0 0z"/>
   <path class="fil2" d="M0.6771 0.6788c-0.0363,0 -0.0657,-0.0294 -0.0657,-0.0657 0,-0.0363 0.0294,-0.0657 0.0657,-0.0657 0.0363,0 0.0657,0.0294 0.0657,0.0657 -0,0.0363 -0.0294,0.0657 -0.0657,0.0657zm0 -0.1096c-0.0242,0 -0.0438,0.0196 -0.0438,0.0438 0,0.0242 0.0196,0.0438 0.0438,0.0438 0.0242,0 0.0438,-0.0196 0.0438,-0.0438 0,-0.0242 -0.0196,-0.0438 -0.0438,-0.0438zm0 0z"/>
   <path class="fil2" d="M0.8633 0.7226c-0.0363,0 -0.0657,-0.0294 -0.0657,-0.0657 0,-0.0363 0.0294,-0.0657 0.0657,-0.0657 0.0363,0 0.0657,0.0294 0.0657,0.0657 -0,0.0363 -0.0294,0.0657 -0.0657,0.0657zm0 -0.1096c-0.0242,0 -0.0438,0.0196 -0.0438,0.0438 0,0.0242 0.0196,0.0438 0.0438,0.0438 0.0242,0 0.0438,-0.0196 0.0438,-0.0438 0,-0.0242 -0.0196,-0.0438 -0.0438,-0.0438zm0 0z"/>
   <path class="fil2" d="M0.4909 0.7226c-0.0363,0 -0.0657,-0.0294 -0.0657,-0.0657 0,-0.0363 0.0294,-0.0657 0.0657,-0.0657 0.0363,0 0.0657,0.0294 0.0657,0.0657 -0,0.0363 -0.0294,0.0657 -0.0657,0.0657zm0 -0.1096c-0.0242,0 -0.0438,0.0196 -0.0438,0.0438 0,0.0242 0.0196,0.0438 0.0438,0.0438 0.0242,0 0.0438,-0.0196 0.0438,-0.0438 0,-0.0242 -0.0196,-0.0438 -0.0438,-0.0438zm0 0z"/>
   <path class="fil2" d="M0.9627 0.7507c-0.0163,-0.0112 -0.0357,-0.0172 -0.0555,-0.0172l-0.0876 0c-0.0053,0 -0.0106,0.0005 -0.0159,0.0014 -0.007,-0.011 -0.0161,-0.0204 -0.0268,-0.0278 -0.0016,-0.0012 -0.0033,-0.0023 -0.0051,-0.0033 -0.0153,-0.0093 -0.0329,-0.0142 -0.0508,-0.0141l-0.0877 0c-0.0335,-0.0001 -0.0647,0.017 -0.0827,0.0453 -0.0053,-0.0009 -0.0106,-0.0014 -0.0159,-0.0014l-0.0876 0c-0.0198,-0.0001 -0.0391,0.0059 -0.0555,0.0171 -0.027,0.0183 -0.0431,0.0488 -0.0431,0.0815l0 0.0438c0,0.0299 0.0174,0.0571 0.0446,0.0696 0.01,0.0047 0.021,0.0072 0.0321,0.0071l0.1096 0 0 -0.0219 -0.0986 0 0 -0.1205 -0.0219 0 0 0.1194c-0.0041,-0.0008 -0.0081,-0.0022 -0.0119,-0.004 -0.0194,-0.009 -0.0318,-0.0283 -0.0319,-0.0497l0 -0.0438c0,-0.0254 0.0126,-0.0491 0.0336,-0.0634 0.0127,-0.0087 0.0277,-0.0133 0.0431,-0.0133l0.0876 0c0.0019,0 0.0038,0.0002 0.0057,0.0003 -0.0037,0.0104 -0.0056,0.0214 -0.0057,0.0325l0 0.1096c0,0.0302 0.0245,0.0547 0.0548,0.0548l0.0329 0 0 -0.1753 -0.0219 0 0 0.1534 -0.011 0c-0.0182,0 -0.0329,-0.0147 -0.0329,-0.0329l0 -0.1096c0,-0.0424 0.0343,-0.0767 0.0767,-0.0767l0.0877 0c0.0141,0 0.0279,0.0039 0.0399,0.0113 0.0011,0.0006 0.0022,0.0013 0.0032,0.002 0.0103,0.007 0.0187,0.0164 0.0246,0.0274 0.0059,0.0111 0.009,0.0234 0.009,0.036l0 0.1096c0,0.0181 -0.0147,0.0329 -0.0329,0.0329l-0.011 0 0 -0.1534 -0.0219 0 0 0.1753 0.0329 0c0.0302,-0 0.0547,-0.0245 0.0548,-0.0548l0 -0.1096c-0.0001,-0.0111 -0.002,-0.0221 -0.0057,-0.0325 0.0019,-0.0001 0.0037,-0.0003 0.0057,-0.0003l0.0876 0c0.0154,-0 0.0304,0.0046 0.0431,0.0133 0.021,0.0143 0.0335,0.038 0.0336,0.0634l0 0.0438c-0,0.0214 -0.0126,0.0409 -0.0321,0.0498 -0.0037,0.0018 -0.0077,0.0031 -0.0117,0.0039l0 -0.1194 -0.0219 -0 0 0.1205 -0.0986 0 0 0.0219 0.1096 0c0.011,0.0001 0.0219,-0.0023 0.0319,-0.007 0.0273,-0.0125 0.0448,-0.0397 0.0448,-0.0697l0 -0.0438c-0,-0.0326 -0.0162,-0.0631 -0.0431,-0.0814zm0 0z"/>
   <path class="fil2" d="M0.6333 0.9308l0.0877 0 0 0.0219 -0.0877 0 0 -0.0219zm0 0z"/>
  </g>
 </g>
</svg>
